<mxfile host="65bd71144e" pages="6">
    <diagram name="TIERS Network (HL)" id="hp3UY5bC-rj3lccdLszW">
        <mxGraphModel dx="1565" dy="920" grid="0" gridSize="10" guides="1" tooltips="1" connect="1" arrows="1" fold="1" page="1" pageScale="1" pageWidth="1100" pageHeight="850" math="0" shadow="0">
            <root>
                <mxCell id="DYlOEbUVuKstzPaehqIf-0"/>
                <mxCell id="DYlOEbUVuKstzPaehqIf-1" parent="DYlOEbUVuKstzPaehqIf-0"/>
                <mxCell id="JFoFUGI0xAzGjDQzh9hY-1" value="" style="outlineConnect=0;dashed=0;verticalLabelPosition=bottom;verticalAlign=top;align=center;html=1;shape=mxgraph.aws3.cloud_2;fillColor=#F58534;gradientColor=none;" parent="DYlOEbUVuKstzPaehqIf-1" vertex="1">
                    <mxGeometry x="239" y="71" width="75" height="75" as="geometry"/>
                </mxCell>
                <mxCell id="JFoFUGI0xAzGjDQzh9hY-4" value="AWS Direct Connect" style="ellipse;shape=cloud;whiteSpace=wrap;html=1;fillColor=#dae8fc;strokeColor=#6c8ebf;" parent="DYlOEbUVuKstzPaehqIf-1" vertex="1">
                    <mxGeometry x="177.5" y="242" width="198" height="90" as="geometry"/>
                </mxCell>
                <mxCell id="i5lrpX4q30wOwoxjD6Ym-2" style="edgeStyle=none;html=1;strokeWidth=2;startArrow=classic;startFill=1;fillColor=#60a917;strokeColor=#2D7600;entryX=0;entryY=0.5;entryDx=0;entryDy=0;rounded=0;" parent="DYlOEbUVuKstzPaehqIf-1" source="JFoFUGI0xAzGjDQzh9hY-6" target="JFoFUGI0xAzGjDQzh9hY-10" edge="1">
                    <mxGeometry relative="1" as="geometry">
                        <mxPoint x="899" y="105.5" as="targetPoint"/>
                        <Array as="points">
                            <mxPoint x="877" y="106"/>
                            <mxPoint x="877" y="33"/>
                        </Array>
                    </mxGeometry>
                </mxCell>
                <mxCell id="JFoFUGI0xAzGjDQzh9hY-6" value="&lt;b&gt;&lt;font style=&quot;font-size: 14px;&quot;&gt;Internet&lt;/font&gt;&lt;/b&gt;" style="html=1;verticalLabelPosition=middle;align=center;labelBackgroundColor=#ffffff;verticalAlign=middle;strokeWidth=2;strokeColor=#B3B3B3;shadow=0;dashed=0;shape=mxgraph.ios7.icons.cloud;labelPosition=center;" parent="DYlOEbUVuKstzPaehqIf-1" vertex="1">
                    <mxGeometry x="591" y="53" width="202" height="105" as="geometry"/>
                </mxCell>
                <mxCell id="JFoFUGI0xAzGjDQzh9hY-8" value="" style="shape=image;verticalLabelPosition=bottom;labelBackgroundColor=default;verticalAlign=top;aspect=fixed;imageAspect=0;image=https://1000logos.net/wp-content/uploads/2022/03/IRS-Logo-1862.png;" parent="DYlOEbUVuKstzPaehqIf-1" vertex="1">
                    <mxGeometry x="997" y="166" width="57.78" height="32.5" as="geometry"/>
                </mxCell>
                <mxCell id="JFoFUGI0xAzGjDQzh9hY-10" value="" style="shape=image;verticalLabelPosition=bottom;labelBackgroundColor=default;verticalAlign=top;aspect=fixed;imageAspect=0;image=https://easyclocking.com/wp-content/uploads/2019/10/Hero.png;" parent="DYlOEbUVuKstzPaehqIf-1" vertex="1">
                    <mxGeometry x="998.78" y="5" width="56" height="56" as="geometry"/>
                </mxCell>
                <mxCell id="i5lrpX4q30wOwoxjD6Ym-10" style="edgeStyle=none;rounded=0;html=1;strokeWidth=2;startArrow=none;startFill=0;endArrow=none;endFill=0;fillColor=#60a917;strokeColor=#2D7600;" parent="DYlOEbUVuKstzPaehqIf-1" source="JFoFUGI0xAzGjDQzh9hY-12" edge="1">
                    <mxGeometry relative="1" as="geometry">
                        <mxPoint x="879" y="106" as="targetPoint"/>
                    </mxGeometry>
                </mxCell>
                <mxCell id="JFoFUGI0xAzGjDQzh9hY-12" value="Others&lt;br style=&quot;font-size: 10px;&quot;&gt;(BVS / TALX/ SAVE...)" style="text;html=1;strokeColor=default;fillColor=none;align=center;verticalAlign=middle;whiteSpace=wrap;rounded=0;fontSize=10;" parent="DYlOEbUVuKstzPaehqIf-1" vertex="1">
                    <mxGeometry x="949" y="90.5" width="130" height="30" as="geometry"/>
                </mxCell>
                <mxCell id="JFoFUGI0xAzGjDQzh9hY-14" style="edgeStyle=orthogonalEdgeStyle;rounded=0;orthogonalLoop=1;jettySize=auto;html=1;entryX=0.4;entryY=0.1;entryDx=0;entryDy=0;entryPerimeter=0;startArrow=classic;startFill=1;fillColor=#f8cecc;strokeColor=#b85450;strokeWidth=2;exitX=0.497;exitY=0.979;exitDx=0;exitDy=0;exitPerimeter=0;" parent="DYlOEbUVuKstzPaehqIf-1" source="JFoFUGI0xAzGjDQzh9hY-15" target="JFoFUGI0xAzGjDQzh9hY-17" edge="1">
                    <mxGeometry relative="1" as="geometry"/>
                </mxCell>
                <mxCell id="JFoFUGI0xAzGjDQzh9hY-15" value="SDWAN" style="ellipse;shape=cloud;whiteSpace=wrap;html=1;fillColor=#d5e8d4;strokeColor=#82b366;" parent="DYlOEbUVuKstzPaehqIf-1" vertex="1">
                    <mxGeometry x="613" y="242" width="147" height="94" as="geometry"/>
                </mxCell>
                <mxCell id="JFoFUGI0xAzGjDQzh9hY-17" value="HHS Core&lt;br&gt;Winters" style="ellipse;shape=cloud;whiteSpace=wrap;html=1;fillColor=#d5e8d4;strokeColor=#82b366;" parent="DYlOEbUVuKstzPaehqIf-1" vertex="1">
                    <mxGeometry x="611" y="384.60999999999996" width="190.33" height="126.89" as="geometry"/>
                </mxCell>
                <mxCell id="JFoFUGI0xAzGjDQzh9hY-19" value="HHS Regional Office" style="sketch=0;outlineConnect=0;gradientColor=none;fontColor=#545B64;strokeColor=none;fillColor=#879196;dashed=0;verticalLabelPosition=bottom;verticalAlign=top;align=center;html=1;fontSize=12;fontStyle=0;aspect=fixed;shape=mxgraph.aws4.illustration_office_building;pointerEvents=1" parent="DYlOEbUVuKstzPaehqIf-1" vertex="1">
                    <mxGeometry x="384" y="383" width="100" height="71" as="geometry"/>
                </mxCell>
                <mxCell id="JFoFUGI0xAzGjDQzh9hY-20" style="edgeStyle=orthogonalEdgeStyle;rounded=0;orthogonalLoop=1;jettySize=auto;html=1;endArrow=classic;endFill=1;fillColor=#f8cecc;strokeColor=#b85450;strokeWidth=2;startArrow=classic;startFill=1;" parent="DYlOEbUVuKstzPaehqIf-1" target="JFoFUGI0xAzGjDQzh9hY-6" edge="1">
                    <mxGeometry relative="1" as="geometry">
                        <mxPoint x="317" y="136" as="sourcePoint"/>
                        <mxPoint x="677" y="176" as="targetPoint"/>
                        <Array as="points">
                            <mxPoint x="317" y="136"/>
                        </Array>
                    </mxGeometry>
                </mxCell>
                <mxCell id="JFoFUGI0xAzGjDQzh9hY-21" value="Regional Office Traffic using Cisco SDWan" style="shape=note;strokeWidth=2;fontSize=12;size=20;whiteSpace=wrap;html=1;fillColor=#fff2cc;strokeColor=#d6b656;" parent="DYlOEbUVuKstzPaehqIf-1" vertex="1">
                    <mxGeometry x="455" y="192" width="140" height="80" as="geometry"/>
                </mxCell>
                <mxCell id="JFoFUGI0xAzGjDQzh9hY-23" value="DIR&lt;br style=&quot;border-color: var(--border-color);&quot;&gt;MPLS" style="ellipse;shape=cloud;whiteSpace=wrap;html=1;fillColor=#dae8fc;strokeColor=#6c8ebf;" parent="DYlOEbUVuKstzPaehqIf-1" vertex="1">
                    <mxGeometry x="228" y="511.5" width="142.43" height="94.5" as="geometry"/>
                </mxCell>
                <mxCell id="JFoFUGI0xAzGjDQzh9hY-26" style="edgeStyle=orthogonalEdgeStyle;rounded=0;orthogonalLoop=1;jettySize=auto;html=1;startArrow=classic;startFill=1;fillColor=#dae8fc;strokeColor=#6c8ebf;strokeWidth=2;" parent="DYlOEbUVuKstzPaehqIf-1" source="JFoFUGI0xAzGjDQzh9hY-27" edge="1">
                    <mxGeometry relative="1" as="geometry">
                        <mxPoint x="319" y="530" as="targetPoint"/>
                        <Array as="points">
                            <mxPoint x="319" y="521"/>
                        </Array>
                    </mxGeometry>
                </mxCell>
                <mxCell id="JFoFUGI0xAzGjDQzh9hY-27" value="MegaPort" style="ellipse;shape=cloud;whiteSpace=wrap;html=1;fillColor=#dae8fc;strokeColor=#6c8ebf;" parent="DYlOEbUVuKstzPaehqIf-1" vertex="1">
                    <mxGeometry x="235" y="366" width="101.5" height="80" as="geometry"/>
                </mxCell>
                <mxCell id="JFoFUGI0xAzGjDQzh9hY-28" value="Internal Trading Partner Traffic&lt;br style=&quot;font-size: 12px;&quot;&gt;using Direct Connect" style="shape=note;strokeWidth=2;fontSize=12;size=20;whiteSpace=wrap;html=1;fillColor=#fff2cc;strokeColor=#d6b656;" parent="DYlOEbUVuKstzPaehqIf-1" vertex="1">
                    <mxGeometry x="167" y="646" width="169.5" height="80" as="geometry"/>
                </mxCell>
                <mxCell id="JFoFUGI0xAzGjDQzh9hY-29" style="edgeStyle=orthogonalEdgeStyle;rounded=0;orthogonalLoop=1;jettySize=auto;html=1;entryX=0.31;entryY=0.8;entryDx=0;entryDy=0;entryPerimeter=0;fillColor=#e1d5e7;strokeColor=#9673a6;strokeWidth=2;startArrow=classic;startFill=1;" parent="DYlOEbUVuKstzPaehqIf-1" target="JFoFUGI0xAzGjDQzh9hY-23" edge="1">
                    <mxGeometry relative="1" as="geometry">
                        <mxPoint x="87" y="706" as="sourcePoint"/>
                        <Array as="points">
                            <mxPoint x="87" y="706"/>
                            <mxPoint x="87" y="626"/>
                            <mxPoint x="272" y="626"/>
                        </Array>
                    </mxGeometry>
                </mxCell>
                <mxCell id="JFoFUGI0xAzGjDQzh9hY-30" value="SDC&lt;br&gt;(Trading Partner)" style="ellipse;shape=cloud;whiteSpace=wrap;html=1;fillColor=#e1d5e7;strokeColor=#9673a6;" parent="DYlOEbUVuKstzPaehqIf-1" vertex="1">
                    <mxGeometry x="17" y="696" width="160.5" height="96.89" as="geometry"/>
                </mxCell>
                <mxCell id="JFoFUGI0xAzGjDQzh9hY-31" style="edgeStyle=orthogonalEdgeStyle;rounded=0;orthogonalLoop=1;jettySize=auto;html=1;entryX=0.8;entryY=0.8;entryDx=0;entryDy=0;entryPerimeter=0;exitX=0.625;exitY=0.2;exitDx=0;exitDy=0;exitPerimeter=0;fillColor=#e1d5e7;strokeColor=#9673a6;strokeWidth=2;startArrow=classic;startFill=1;" parent="DYlOEbUVuKstzPaehqIf-1" source="JFoFUGI0xAzGjDQzh9hY-32" target="JFoFUGI0xAzGjDQzh9hY-23" edge="1">
                    <mxGeometry relative="1" as="geometry"/>
                </mxCell>
                <mxCell id="JFoFUGI0xAzGjDQzh9hY-32" value="ADC&lt;br&gt;(Trading Partner)" style="ellipse;shape=cloud;whiteSpace=wrap;html=1;fillColor=#e1d5e7;strokeColor=#9673a6;" parent="DYlOEbUVuKstzPaehqIf-1" vertex="1">
                    <mxGeometry x="329.5" y="696" width="160.5" height="96.89" as="geometry"/>
                </mxCell>
                <mxCell id="i5lrpX4q30wOwoxjD6Ym-8" style="edgeStyle=none;rounded=0;html=1;strokeWidth=2;startArrow=none;startFill=0;fillColor=#60a917;strokeColor=#2D7600;" parent="DYlOEbUVuKstzPaehqIf-1" target="JFoFUGI0xAzGjDQzh9hY-8" edge="1">
                    <mxGeometry relative="1" as="geometry">
                        <mxPoint x="876" y="106" as="sourcePoint"/>
                        <Array as="points">
                            <mxPoint x="876" y="185"/>
                        </Array>
                    </mxGeometry>
                </mxCell>
                <mxCell id="JFoFUGI0xAzGjDQzh9hY-33" value="External Trading Partners" style="shape=note;strokeWidth=2;fontSize=14;size=9;whiteSpace=wrap;html=1;fillColor=#e1d5e7;strokeColor=#9673a6;" parent="DYlOEbUVuKstzPaehqIf-1" vertex="1">
                    <mxGeometry x="903" y="222.75" width="181.67" height="39.25" as="geometry"/>
                </mxCell>
                <mxCell id="JFoFUGI0xAzGjDQzh9hY-34" value="State of Texas - Inter Agency Trading Partners" style="shape=note;strokeWidth=2;fontSize=14;size=9;whiteSpace=wrap;html=1;fillColor=#e1d5e7;strokeColor=#9673a6;" parent="DYlOEbUVuKstzPaehqIf-1" vertex="1">
                    <mxGeometry x="37" y="806" width="440" height="39.25" as="geometry"/>
                </mxCell>
                <mxCell id="W64AyugJ_fDiOqzTMXQO-0" style="edgeStyle=orthogonalEdgeStyle;rounded=0;orthogonalLoop=1;jettySize=auto;html=1;startArrow=classic;startFill=1;fillColor=#f8cecc;strokeColor=#b85450;strokeWidth=2;exitX=0.436;exitY=0.99;exitDx=0;exitDy=0;exitPerimeter=0;entryX=0.449;entryY=0.128;entryDx=0;entryDy=0;entryPerimeter=0;" parent="DYlOEbUVuKstzPaehqIf-1" source="JFoFUGI0xAzGjDQzh9hY-6" target="JFoFUGI0xAzGjDQzh9hY-15" edge="1">
                    <mxGeometry relative="1" as="geometry">
                        <mxPoint x="696.5" y="346" as="sourcePoint"/>
                        <mxPoint x="679" y="261" as="targetPoint"/>
                    </mxGeometry>
                </mxCell>
                <mxCell id="W64AyugJ_fDiOqzTMXQO-1" style="edgeStyle=orthogonalEdgeStyle;rounded=0;orthogonalLoop=1;jettySize=auto;html=1;startArrow=classic;startFill=1;fillColor=#f8cecc;strokeColor=#b85450;strokeWidth=2;exitX=0.247;exitY=0.189;exitDx=0;exitDy=0;exitPerimeter=0;" parent="DYlOEbUVuKstzPaehqIf-1" source="JFoFUGI0xAzGjDQzh9hY-17" target="JFoFUGI0xAzGjDQzh9hY-19" edge="1">
                    <mxGeometry relative="1" as="geometry">
                        <mxPoint x="696.0590000000002" y="344.02600000000007" as="sourcePoint"/>
                        <mxPoint x="696.1320000000001" y="424.6890000000001" as="targetPoint"/>
                    </mxGeometry>
                </mxCell>
                <mxCell id="i5lrpX4q30wOwoxjD6Ym-0" style="edgeStyle=orthogonalEdgeStyle;rounded=0;orthogonalLoop=1;jettySize=auto;html=1;entryX=0.875;entryY=0.5;entryDx=0;entryDy=0;entryPerimeter=0;fillColor=#dae8fc;strokeColor=#6c8ebf;strokeWidth=2;startArrow=classic;startFill=1;" parent="DYlOEbUVuKstzPaehqIf-1" source="JFoFUGI0xAzGjDQzh9hY-17" target="JFoFUGI0xAzGjDQzh9hY-23" edge="1">
                    <mxGeometry relative="1" as="geometry">
                        <mxPoint x="238.00003987291507" y="568.8" as="sourcePoint"/>
                        <mxPoint x="103.48299999999995" y="461.9000000000001" as="targetPoint"/>
                        <Array as="points">
                            <mxPoint x="706" y="559"/>
                        </Array>
                    </mxGeometry>
                </mxCell>
                <mxCell id="i5lrpX4q30wOwoxjD6Ym-4" style="edgeStyle=none;html=1;strokeWidth=2;startArrow=classic;startFill=1;fillColor=#60a917;strokeColor=#2D7600;" parent="DYlOEbUVuKstzPaehqIf-1" edge="1">
                    <mxGeometry relative="1" as="geometry">
                        <mxPoint x="588" y="105" as="targetPoint"/>
                        <mxPoint x="319" y="105" as="sourcePoint"/>
                    </mxGeometry>
                </mxCell>
                <mxCell id="i5lrpX4q30wOwoxjD6Ym-12" value="&lt;font style=&quot;font-size: 12px;&quot;&gt;Regional Office&amp;nbsp; Traffic&lt;br style=&quot;font-size: 12px;&quot;&gt;&lt;/font&gt;" style="text;html=1;align=center;verticalAlign=middle;resizable=0;points=[];autosize=1;strokeColor=none;fillColor=none;fontSize=12;" parent="DYlOEbUVuKstzPaehqIf-1" vertex="1">
                    <mxGeometry x="704" y="723" width="139" height="26" as="geometry"/>
                </mxCell>
                <mxCell id="i5lrpX4q30wOwoxjD6Ym-13" style="edgeStyle=orthogonalEdgeStyle;rounded=0;orthogonalLoop=1;jettySize=auto;html=1;startArrow=classic;startFill=1;fillColor=#f8cecc;strokeColor=#b85450;strokeWidth=2;" parent="DYlOEbUVuKstzPaehqIf-1" edge="1">
                    <mxGeometry relative="1" as="geometry">
                        <mxPoint x="845" y="736" as="sourcePoint"/>
                        <mxPoint x="1047" y="736" as="targetPoint"/>
                    </mxGeometry>
                </mxCell>
                <mxCell id="i5lrpX4q30wOwoxjD6Ym-16" style="edgeStyle=orthogonalEdgeStyle;rounded=0;orthogonalLoop=1;jettySize=auto;html=1;startArrow=classic;startFill=1;fillColor=#60a917;strokeColor=#6C8EBF;strokeWidth=2;" parent="DYlOEbUVuKstzPaehqIf-1" edge="1">
                    <mxGeometry relative="1" as="geometry">
                        <mxPoint x="844" y="695" as="sourcePoint"/>
                        <mxPoint x="1046" y="695" as="targetPoint"/>
                    </mxGeometry>
                </mxCell>
                <mxCell id="i5lrpX4q30wOwoxjD6Ym-17" value="&lt;font style=&quot;font-size: 12px;&quot;&gt;External Trading Partner Traffic&lt;br style=&quot;font-size: 12px;&quot;&gt;&lt;/font&gt;" style="text;html=1;align=center;verticalAlign=middle;resizable=0;points=[];autosize=1;strokeColor=none;fillColor=none;fontSize=12;" parent="DYlOEbUVuKstzPaehqIf-1" vertex="1">
                    <mxGeometry x="658" y="804" width="184" height="26" as="geometry"/>
                </mxCell>
                <mxCell id="i5lrpX4q30wOwoxjD6Ym-18" value="&lt;font style=&quot;font-size: 12px;&quot;&gt;Winters to AWS Traffic&lt;br style=&quot;font-size: 12px;&quot;&gt;&lt;/font&gt;" style="text;html=1;align=center;verticalAlign=middle;resizable=0;points=[];autosize=1;strokeColor=none;fillColor=none;fontSize=12;" parent="DYlOEbUVuKstzPaehqIf-1" vertex="1">
                    <mxGeometry x="704" y="682" width="137" height="26" as="geometry"/>
                </mxCell>
                <mxCell id="i5lrpX4q30wOwoxjD6Ym-19" style="edgeStyle=orthogonalEdgeStyle;rounded=0;orthogonalLoop=1;jettySize=auto;html=1;startArrow=classic;startFill=1;fillColor=#6a00ff;strokeColor=#9673A6;strokeWidth=2;" parent="DYlOEbUVuKstzPaehqIf-1" edge="1">
                    <mxGeometry relative="1" as="geometry">
                        <mxPoint x="845" y="778" as="sourcePoint"/>
                        <mxPoint x="1047" y="778" as="targetPoint"/>
                    </mxGeometry>
                </mxCell>
                <mxCell id="i5lrpX4q30wOwoxjD6Ym-20" style="edgeStyle=orthogonalEdgeStyle;rounded=0;orthogonalLoop=1;jettySize=auto;html=1;startArrow=classic;startFill=1;fillColor=#60a917;strokeColor=#2D7600;strokeWidth=2;" parent="DYlOEbUVuKstzPaehqIf-1" edge="1">
                    <mxGeometry relative="1" as="geometry">
                        <mxPoint x="846" y="821" as="sourcePoint"/>
                        <mxPoint x="1048" y="821" as="targetPoint"/>
                    </mxGeometry>
                </mxCell>
                <mxCell id="i5lrpX4q30wOwoxjD6Ym-21" value="&lt;font style=&quot;font-size: 12px;&quot;&gt;Internal Trading Partner Traffic&lt;br style=&quot;font-size: 12px;&quot;&gt;&lt;/font&gt;" style="text;html=1;align=center;verticalAlign=middle;resizable=0;points=[];autosize=1;strokeColor=none;fillColor=none;fontSize=12;" parent="DYlOEbUVuKstzPaehqIf-1" vertex="1">
                    <mxGeometry x="662" y="763" width="180" height="26" as="geometry"/>
                </mxCell>
                <mxCell id="i5lrpX4q30wOwoxjD6Ym-22" value="Winters to AWS Traffic &lt;br&gt;using Direct Connect" style="shape=note;strokeWidth=2;fontSize=12;size=20;whiteSpace=wrap;html=1;fillColor=#fff2cc;strokeColor=#d6b656;" parent="DYlOEbUVuKstzPaehqIf-1" vertex="1">
                    <mxGeometry x="492.5" y="572" width="169.5" height="80" as="geometry"/>
                </mxCell>
                <mxCell id="i5lrpX4q30wOwoxjD6Ym-23" value="Key" style="text;html=1;align=center;verticalAlign=middle;resizable=0;points=[];autosize=1;strokeColor=none;fillColor=none;fontSize=14;" parent="DYlOEbUVuKstzPaehqIf-1" vertex="1">
                    <mxGeometry x="1001" y="648" width="42" height="29" as="geometry"/>
                </mxCell>
                <mxCell id="i5lrpX4q30wOwoxjD6Ym-24" value="External Trading Partner Traffic&lt;br style=&quot;font-size: 12px;&quot;&gt;(to AWS)" style="shape=note;strokeWidth=2;fontSize=12;size=20;whiteSpace=wrap;html=1;fillColor=#fff2cc;strokeColor=#d6b656;" parent="DYlOEbUVuKstzPaehqIf-1" vertex="1">
                    <mxGeometry x="451" y="15.73" width="146.77" height="69.27" as="geometry"/>
                </mxCell>
                <mxCell id="0" style="edgeStyle=orthogonalEdgeStyle;rounded=0;orthogonalLoop=1;jettySize=auto;html=1;startArrow=classic;startFill=1;fillColor=#dae8fc;strokeColor=#6c8ebf;strokeWidth=2;" edge="1" parent="DYlOEbUVuKstzPaehqIf-1">
                    <mxGeometry relative="1" as="geometry">
                        <mxPoint x="319" y="384.61" as="sourcePoint"/>
                        <mxPoint x="319" y="327" as="targetPoint"/>
                        <Array as="points">
                            <mxPoint x="319.5" y="369.61"/>
                            <mxPoint x="319.5" y="369.61"/>
                        </Array>
                    </mxGeometry>
                </mxCell>
                <mxCell id="3" style="edgeStyle=orthogonalEdgeStyle;rounded=0;orthogonalLoop=1;jettySize=auto;html=1;startArrow=classic;startFill=1;fillColor=#dae8fc;strokeColor=#6c8ebf;strokeWidth=2;exitX=0.679;exitY=0.211;exitDx=0;exitDy=0;exitPerimeter=0;" edge="1" parent="DYlOEbUVuKstzPaehqIf-1" source="JFoFUGI0xAzGjDQzh9hY-4">
                    <mxGeometry relative="1" as="geometry">
                        <mxPoint x="311" y="203.61000000000013" as="sourcePoint"/>
                        <mxPoint x="311" y="146" as="targetPoint"/>
                        <Array as="points">
                            <mxPoint x="312" y="189"/>
                        </Array>
                    </mxGeometry>
                </mxCell>
                <mxCell id="4" style="edgeStyle=orthogonalEdgeStyle;rounded=0;orthogonalLoop=1;jettySize=auto;html=1;startArrow=classic;startFill=1;fillColor=#dae8fc;strokeColor=#9673A6;strokeWidth=2;" edge="1" parent="DYlOEbUVuKstzPaehqIf-1">
                    <mxGeometry relative="1" as="geometry">
                        <mxPoint x="269" y="433.9991755864919" as="sourcePoint"/>
                        <mxPoint x="269" y="527.78" as="targetPoint"/>
                        <Array as="points">
                            <mxPoint x="269" y="518.78"/>
                        </Array>
                    </mxGeometry>
                </mxCell>
                <mxCell id="5" style="edgeStyle=orthogonalEdgeStyle;rounded=0;orthogonalLoop=1;jettySize=auto;html=1;startArrow=classic;startFill=1;fillColor=#dae8fc;strokeColor=#9673A6;strokeWidth=2;" edge="1" parent="DYlOEbUVuKstzPaehqIf-1">
                    <mxGeometry relative="1" as="geometry">
                        <mxPoint x="261" y="323.83000000000004" as="sourcePoint"/>
                        <mxPoint x="261" y="384.61" as="targetPoint"/>
                        <Array as="points">
                            <mxPoint x="261" y="375.61"/>
                        </Array>
                    </mxGeometry>
                </mxCell>
                <mxCell id="6" style="edgeStyle=orthogonalEdgeStyle;rounded=0;orthogonalLoop=1;jettySize=auto;html=1;startArrow=classic;startFill=1;fillColor=#dae8fc;strokeColor=#9673A6;strokeWidth=2;entryX=0.4;entryY=0.1;entryDx=0;entryDy=0;entryPerimeter=0;" edge="1" parent="DYlOEbUVuKstzPaehqIf-1" target="JFoFUGI0xAzGjDQzh9hY-4">
                    <mxGeometry relative="1" as="geometry">
                        <mxPoint x="256.5" y="145.9991755864919" as="sourcePoint"/>
                        <mxPoint x="256.5" y="239.77999999999997" as="targetPoint"/>
                        <Array as="points"/>
                    </mxGeometry>
                </mxCell>
            </root>
        </mxGraphModel>
    </diagram>
    <diagram name="AWS DirectConnect" id="1WsBnVIunVtraS4ohEFN">
        <mxGraphModel dx="1565" dy="920" grid="0" gridSize="10" guides="1" tooltips="1" connect="1" arrows="1" fold="1" page="1" pageScale="1" pageWidth="1100" pageHeight="850" math="0" shadow="0">
            <root>
                <mxCell id="I9D4RKwkG700jf1nvvi3-0"/>
                <mxCell id="I9D4RKwkG700jf1nvvi3-1" parent="I9D4RKwkG700jf1nvvi3-0"/>
                <mxCell id="H-wepSP7h09MSPVRebRQ-5" value="AWS Cloud" style="sketch=0;outlineConnect=0;gradientColor=none;html=1;whiteSpace=wrap;fontSize=12;fontStyle=0;shape=mxgraph.aws4.group;grIcon=mxgraph.aws4.group_aws_cloud;strokeColor=#AAB7B8;fillColor=none;verticalAlign=top;align=left;spacingLeft=30;fontColor=#AAB7B8;dashed=0;strokeWidth=1;" parent="I9D4RKwkG700jf1nvvi3-1" vertex="1">
                    <mxGeometry x="85" y="55" width="481" height="209" as="geometry"/>
                </mxCell>
                <mxCell id="I9D4RKwkG700jf1nvvi3-13" style="edgeStyle=orthogonalEdgeStyle;html=1;fontSize=14;endArrow=none;endFill=0;exitX=0;exitY=0.5;exitDx=0;exitDy=0;exitPerimeter=0;fillColor=#dae8fc;strokeColor=#000000;strokeWidth=1;entryX=0.5;entryY=1;entryDx=0;entryDy=0;entryPerimeter=0;" parent="I9D4RKwkG700jf1nvvi3-1" source="I9D4RKwkG700jf1nvvi3-29" target="H-wepSP7h09MSPVRebRQ-4" edge="1">
                    <mxGeometry relative="1" as="geometry">
                        <mxPoint x="128.5" y="441.0999999999999" as="targetPoint"/>
                        <Array as="points">
                            <mxPoint x="364" y="426"/>
                            <mxPoint x="302" y="426"/>
                        </Array>
                    </mxGeometry>
                </mxCell>
                <mxCell id="I9D4RKwkG700jf1nvvi3-24" value="" style="group" parent="I9D4RKwkG700jf1nvvi3-1" vertex="1" connectable="0">
                    <mxGeometry x="289" y="469" width="120" height="81" as="geometry"/>
                </mxCell>
                <mxCell id="I9D4RKwkG700jf1nvvi3-28" value="" style="edgeStyle=none;html=1;exitX=1;exitY=0.5;exitDx=0;exitDy=0;exitPerimeter=0;endArrow=none;endFill=0;" parent="I9D4RKwkG700jf1nvvi3-1" edge="1">
                    <mxGeometry relative="1" as="geometry">
                        <mxPoint x="591" y="705" as="sourcePoint"/>
                        <mxPoint x="591" y="705" as="targetPoint"/>
                    </mxGeometry>
                </mxCell>
                <mxCell id="I9D4RKwkG700jf1nvvi3-29" value="AWS Direct Connect&amp;nbsp; &lt;br&gt;(Primary)&lt;br&gt;Equinix DA2&lt;br&gt;(Dallas)" style="sketch=0;points=[[0,0,0],[0.25,0,0],[0.5,0,0],[0.75,0,0],[1,0,0],[0,1,0],[0.25,1,0],[0.5,1,0],[0.75,1,0],[1,1,0],[0,0.25,0],[0,0.5,0],[0,0.75,0],[1,0.25,0],[1,0.5,0],[1,0.75,0]];outlineConnect=0;fontColor=#232F3E;gradientColor=#945DF2;gradientDirection=north;fillColor=#5A30B5;strokeColor=#ffffff;dashed=0;verticalLabelPosition=bottom;verticalAlign=top;align=center;html=1;fontSize=12;fontStyle=0;aspect=fixed;shape=mxgraph.aws4.resourceIcon;resIcon=mxgraph.aws4.direct_connect;" parent="I9D4RKwkG700jf1nvvi3-1" vertex="1">
                    <mxGeometry x="364" y="398" width="54" height="54" as="geometry"/>
                </mxCell>
                <mxCell id="I9D4RKwkG700jf1nvvi3-30" style="edgeStyle=orthogonalEdgeStyle;html=1;endArrow=none;endFill=0;exitX=0.5;exitY=0;exitDx=0;exitDy=0;exitPerimeter=0;" parent="I9D4RKwkG700jf1nvvi3-1" source="I9D4RKwkG700jf1nvvi3-31" target="H-wepSP7h09MSPVRebRQ-4" edge="1">
                    <mxGeometry relative="1" as="geometry">
                        <mxPoint x="117.56301414939117" y="441.0999999999999" as="targetPoint"/>
                        <Array as="points">
                            <mxPoint x="176" y="425"/>
                            <mxPoint x="301" y="425"/>
                        </Array>
                    </mxGeometry>
                </mxCell>
                <mxCell id="I9D4RKwkG700jf1nvvi3-31" value="AWS Direct Connect&amp;nbsp; (Secondary)&lt;br&gt;Equinix CH4&lt;br&gt;(Chicago)" style="sketch=0;points=[[0,0,0],[0.25,0,0],[0.5,0,0],[0.75,0,0],[1,0,0],[0,1,0],[0.25,1,0],[0.5,1,0],[0.75,1,0],[1,1,0],[0,0.25,0],[0,0.5,0],[0,0.75,0],[1,0.25,0],[1,0.5,0],[1,0.75,0]];outlineConnect=0;fontColor=#232F3E;gradientColor=#945DF2;gradientDirection=north;fillColor=#5A30B5;strokeColor=#ffffff;dashed=0;verticalLabelPosition=bottom;verticalAlign=top;align=center;html=1;fontSize=12;fontStyle=0;aspect=fixed;shape=mxgraph.aws4.resourceIcon;resIcon=mxgraph.aws4.direct_connect;" parent="I9D4RKwkG700jf1nvvi3-1" vertex="1">
                    <mxGeometry x="149" y="656" width="54" height="54" as="geometry"/>
                </mxCell>
                <mxCell id="I9D4RKwkG700jf1nvvi3-32" style="edgeStyle=none;html=1;endArrow=none;endFill=0;startArrow=none;exitX=0;exitY=0.5;exitDx=0;exitDy=0;" parent="I9D4RKwkG700jf1nvvi3-1" source="_FqmQ92ijg84HHhWpgsJ-9" target="I9D4RKwkG700jf1nvvi3-31" edge="1">
                    <mxGeometry relative="1" as="geometry">
                        <mxPoint x="441.0011111111112" y="723.7874875151924" as="sourcePoint"/>
                    </mxGeometry>
                </mxCell>
                <mxCell id="I9D4RKwkG700jf1nvvi3-34" style="edgeStyle=none;html=1;exitX=0;exitY=0.25;exitDx=0;exitDy=0;entryX=1;entryY=0.5;entryDx=0;entryDy=0;entryPerimeter=0;strokeColor=#000000;strokeWidth=1;endArrow=none;endFill=0;" parent="I9D4RKwkG700jf1nvvi3-1" source="jj3hb7Asg8_VtjHweW8X-3" target="I9D4RKwkG700jf1nvvi3-29" edge="1">
                    <mxGeometry relative="1" as="geometry">
                        <mxPoint x="431.0011111111112" y="526" as="sourcePoint"/>
                    </mxGeometry>
                </mxCell>
                <mxCell id="I9D4RKwkG700jf1nvvi3-37" style="edgeStyle=orthogonalEdgeStyle;html=1;entryX=0.07;entryY=0.4;entryDx=0;entryDy=0;entryPerimeter=0;strokeColor=#000000;strokeWidth=1;endArrow=none;endFill=0;exitX=1;exitY=0.5;exitDx=0;exitDy=0;" parent="I9D4RKwkG700jf1nvvi3-1" source="jj3hb7Asg8_VtjHweW8X-3" target="I9D4RKwkG700jf1nvvi3-43" edge="1">
                    <mxGeometry relative="1" as="geometry">
                        <mxPoint x="612" y="528" as="sourcePoint"/>
                        <mxPoint x="804.0011111111112" y="570" as="targetPoint"/>
                    </mxGeometry>
                </mxCell>
                <mxCell id="I9D4RKwkG700jf1nvvi3-38" value="Shared 10gbps&lt;br&gt;(5gbps each)" style="edgeLabel;html=1;align=center;verticalAlign=middle;resizable=0;points=[];fontSize=12;" parent="I9D4RKwkG700jf1nvvi3-37" vertex="1" connectable="0">
                    <mxGeometry x="0.3077" y="2" relative="1" as="geometry">
                        <mxPoint as="offset"/>
                    </mxGeometry>
                </mxCell>
                <mxCell id="I9D4RKwkG700jf1nvvi3-43" value="DIR&lt;br style=&quot;border-color: var(--border-color);&quot;&gt;MPLS" style="ellipse;shape=cloud;whiteSpace=wrap;html=1;fillColor=#dae8fc;strokeColor=#6c8ebf;" parent="I9D4RKwkG700jf1nvvi3-1" vertex="1">
                    <mxGeometry x="798" y="475" width="255" height="228" as="geometry"/>
                </mxCell>
                <mxCell id="I9D4RKwkG700jf1nvvi3-52" value="HHS Core&lt;br&gt;Winters&lt;br&gt;&lt;br&gt;(TIERS Suite of Apps)" style="ellipse;shape=cloud;whiteSpace=wrap;html=1;fillColor=#d5e8d4;strokeColor=#82b366;" parent="I9D4RKwkG700jf1nvvi3-1" vertex="1">
                    <mxGeometry x="810" y="172" width="186" height="115" as="geometry"/>
                </mxCell>
                <mxCell id="I9D4RKwkG700jf1nvvi3-54" style="html=1;strokeColor=#000000;strokeWidth=1;endArrow=none;endFill=0;exitX=0.55;exitY=0.95;exitDx=0;exitDy=0;exitPerimeter=0;entryX=0.455;entryY=0.088;entryDx=0;entryDy=0;entryPerimeter=0;" parent="I9D4RKwkG700jf1nvvi3-1" source="I9D4RKwkG700jf1nvvi3-52" target="I9D4RKwkG700jf1nvvi3-43" edge="1">
                    <mxGeometry relative="1" as="geometry">
                        <mxPoint x="912.3863362864527" y="209" as="sourcePoint"/>
                        <mxPoint x="916.2847748246586" y="480" as="targetPoint"/>
                    </mxGeometry>
                </mxCell>
                <mxCell id="H-wepSP7h09MSPVRebRQ-0" style="edgeStyle=orthogonalEdgeStyle;html=1;entryX=0.13;entryY=0.77;entryDx=0;entryDy=0;entryPerimeter=0;strokeColor=#000000;strokeWidth=1;endArrow=none;endFill=0;exitX=1;exitY=0.75;exitDx=0;exitDy=0;" parent="I9D4RKwkG700jf1nvvi3-1" source="_FqmQ92ijg84HHhWpgsJ-9" target="I9D4RKwkG700jf1nvvi3-43" edge="1">
                    <mxGeometry relative="1" as="geometry">
                        <mxPoint x="639.3400000000001" y="722.1836097392186" as="sourcePoint"/>
                        <mxPoint x="816.1217777777779" y="652" as="targetPoint"/>
                    </mxGeometry>
                </mxCell>
                <mxCell id="H-wepSP7h09MSPVRebRQ-1" value="Shared 10gbps&lt;br&gt;(5gbps each)&lt;br&gt;" style="edgeLabel;html=1;align=center;verticalAlign=middle;resizable=0;points=[];fontSize=12;" parent="H-wepSP7h09MSPVRebRQ-0" vertex="1" connectable="0">
                    <mxGeometry x="0.3077" y="2" relative="1" as="geometry">
                        <mxPoint x="-1" y="1" as="offset"/>
                    </mxGeometry>
                </mxCell>
                <mxCell id="_FqmQ92ijg84HHhWpgsJ-6" value="" style="group" parent="I9D4RKwkG700jf1nvvi3-1" vertex="1" connectable="0">
                    <mxGeometry x="460" y="605" width="35" height="35" as="geometry"/>
                </mxCell>
                <mxCell id="_FqmQ92ijg84HHhWpgsJ-7" value="" style="whiteSpace=wrap;html=1;aspect=fixed;fillColor=#B3B3B3;strokeWidth=0;" parent="_FqmQ92ijg84HHhWpgsJ-6" vertex="1">
                    <mxGeometry width="35" height="35" as="geometry"/>
                </mxCell>
                <mxCell id="_FqmQ92ijg84HHhWpgsJ-8" value="" style="sketch=0;outlineConnect=0;fontColor=#232F3E;gradientColor=none;fillColor=#232F3D;strokeColor=none;dashed=0;verticalLabelPosition=bottom;verticalAlign=top;align=center;html=1;fontSize=12;fontStyle=0;aspect=fixed;pointerEvents=1;shape=mxgraph.aws4.office_building;strokeWidth=0;" parent="_FqmQ92ijg84HHhWpgsJ-6" vertex="1">
                    <mxGeometry x="9.552083333333268" y="5.104166666666667" width="15.888541666666667" height="24.791666666666668" as="geometry"/>
                </mxCell>
                <mxCell id="_FqmQ92ijg84HHhWpgsJ-9" value="Megaport &lt;br&gt;CyrusOne Met II (Austin)" style="whiteSpace=wrap;strokeWidth=1;fillColor=none;labelPosition=center;verticalLabelPosition=middle;align=left;verticalAlign=top;html=1;spacingLeft=40;spacingTop=0;horizontal=1;aspect=fixed;" parent="I9D4RKwkG700jf1nvvi3-1" vertex="1">
                    <mxGeometry x="460" y="605" width="155" height="155" as="geometry"/>
                </mxCell>
                <mxCell id="_FqmQ92ijg84HHhWpgsJ-10" value="" style="shape=image;verticalLabelPosition=bottom;labelBackgroundColor=default;verticalAlign=top;aspect=fixed;imageAspect=0;image=data:image/png,iVBORw0KGgoAAAANSUhEUgAAAwgAAADNCAYAAAAcyFeNAAAgAElEQVR4nO3dfVxVVb4/8I8MHvGEhGgMMUREXCIjM4fIISMz45KXq6SMY5YPQ1SONmZlpkx5yxyvOr7MGsexYpw0JTNTMnN8IDSG4WddxsxIGVOGIUIzJEMiImT9/thzyJSH87DWXvuc83m/XutlM56z1nevs89xf/dae60eQggBIiIiIiIiAAG6AyAiIiIiIutggkBERERERO2YIBARERERUTsmCERERERE1I4JAhERERERtWOCQERERERE7ZggEBERERFROyYIRERERETUjgkCERERERG1Y4JARERERETtmCAQEREREVE7JghERERERNSOCQIREREREbVjgkBERERERO2YIBARERERUTsmCERERERE1I4JAhERERERtWOCQERERERE7ZggEBERERFRu0DdAfiMM2eAqiqgstL4s6oKOHkSqKsD6uuN/25oMF57+vSF7w8NNf4MCQH69zdKWBgQHg7ExgIxMUaJjQX69DHvuIiIiIjIr/QQQgjdQXidY8eA998HysuBgweBAweAmhrz2o+KAgYO/L4kJQH/8R/mtU9EREREPosJgjM+/BAoKgJKSoDSUuDECd0RXSg8HBg61CjDhgHXX687IiIiIiLyQkwQOvLNN8D27UbZsQOordUdkesiIoD0dKOMGgX07q07IiIiIiLyAkwQHM6eBTZuBPLzgV27gJYW3RHJY7MBaWnAuHHA+PFAz566IyIiIiIii2KC8M47wIsvAlu3As3NuqNRLyjIGFHIyQFuv113NERERERkMf6ZIJw5A6xYAaxeDRw9qjsafWJjjURh6lSgb1/d0RARERGRBfhXgvDJJ8DSpcDatf4xWuAsmw2YNAl45BHg6qt1R0NEREREGvlHgvDee8DChcC2bUBbm+5oDFdeCdxxB/Dmm8Cnn+qO5nsZGcATTwA33qg7EiIiIiLSwLcThA8+AObPBwoKdEfyQzffDGRnGwlCQQHw8svAvn26o/qhjAyj77hcKhEREZFf8c0E4fhxY7rMhg26I/mhiy4Cxo4FJk829ioICDBWTyosBNasAbZssd7Up6wsYNky4LLLdEdCRERERCbwvQRh7lxg+XLrXWjHxgITJxpz/WNjL/z7f/zDeDbilVesNeUIMJ5RmDkTWLxYdyREREREpJjvJAivvgrMmmW9Tc169DBGCyZPNkYPgoM7f21Dg7EXw5o1xq7NVhMRASxZYiQ6REREROSTvD9B+PJLYMIEY8djq+nTB/j5z43k4OabjWShO21twJ49RpLwxhtAU5P6OF2VlgasWwdcconuSIiIiIhIMu9OEH7/eyA3F2hs1B3JhWJigHvvNaYURUe7/v5jx4wpR3/+s/WmHAHGSMiCBcBDD+mOhIiIiIgk8s4E4dtvjVV2Cgt1R9K5Bx4wHu61292vo7HReNj6pZfkxSXb8OHG8rG9e+uOhIiIiIgkCNAdgMvefBOIirJ2cgAACQmeJQeAcZd+wAA58ahSVGR8Hlu26I6EiIiIiCTwrgThoYeAzEygrk53JHSu+npgzBhg+nTdkRARERGRh7wjQRDCeMj3+ed1R0JdWbkS+NnPjL0diIiIiMgrWT9B+PvfgchIay77SRfat8+YcvTee7ojISIiIiI3WDtBeO01ICUFOHFCdyTkihMngNRUYP163ZEQERERkYusmyAsXgyMHw+0tOiOhNzR0gLccw/w29/qjoSIiIiIXGDNBOFXvwLmzNEdBcnwxBPAfffpjoKIiIiInBSoO4AL3H03kJ+vOwqSKS/P2BGaU46IiIiILM9aIwh33snkwFfl5wOjR+uOgoiIiIi6YZ0EYfRooKBAdxSk0tatwB136I6CiIiIiLpgjQRh7Fjj4pF8344dHEkgIiIisjD9CcLkycDmzbqjIDNt3Wo8a0JERERElqM3QXjoIWDtWq0hkCb5+cD06bqjICIiIqLz6EsQnnsOeP55bc2TBaxcCfzud7qjICIiIqJz6EkQdu4EHnlES9NkMbNnA2+/rTsKIiIiIvo38xOEL74AxowB2tpMb5osatw44LPPdEdBRERERNCRICQlGZtmETk0NQFDhuiOgoiIiIhgdoJw++1AdbWpTZKXqKkBbrtNdxREREREfs+8BOHJJ4HCQtOaIy9UVAQ8/rjuKIiIiIj8mjkJwuHDwIIFpjRFXm7JEuDDD3VHQUREROS3zEkQRowwpRnyEenpuiMgIiIi8lvqE4Sf/xyorVXeDPmQEyeAO+/UHQURERGRX1KbIPzlL8CmTUqbIB9VUAC8+abuKIiIiIj8jtoEYdIkpdWTj8vO1h0BERERkd9RlyBMnAjU1SmrnvxAfT3wi1/ojoKIiIjIr6hJEI4dA9atU1K1VwgMBKKi5NQVEQEEmL+fnWVs3Ah8/LHuKIiIiIj8RqCSWkeOVFKtVwgMBCZPlrcz8JAhwF13Aa++CrS1yanT24waZSSdRERERJLdKXlhlC1btkitT4ceQgghtcY//QnIyZFapddwJAe/+Q1wxRXy6v3HP4BnnvHvJGHlSuBXv9IdBREREfmYHj16SK2vsrISV8i8DtRAfoLQty9w+rTUKr2CquTAwd+ThJAQ4KuvdEdBREREPoYJwoXkTm5/+GEmB6pOiKuuAp580phu5I/PJDQ0ANOn646CiIiIyOfJHUHo1QtoaZFWnVcICDCWc503T11ycC5/HkkIDAS++05rCO+++67pbUZFReHKK680vd2ufPLJJ6jVsAHiLbfcYnqbRETk2ziCcCF5Dyk/8IB/Jgd33aV25OB8jpEEIYwkQfIMMUtrbQXuvdd4zkWTYcOGmd5mcHAwzpw5Y3q7XRk8eDAaGxtNb1f2jEgiIiK6kLy5KqtXS6vKKziSgyefBOLizG3bkSSMGQNIznotb+1a3RGYrrGxEX/72990h9Hu2LFjWpIDIiIiMoecBGH6dOPurr84Nzm46io9MSQkGNOa/C1JaG0F7rtPdxSme/DBB3WH0C6bO1wTERH5NDnPIPjTswdWSA7OdfAgMH8+sHmz/0w3stmAb7/V0rTseYqusMr0GvYBERH5Ej6DcCHPRxCefZbJgU4DB/rfSEJLC7B4se4oTDfdAqs4/fGPf9QdAhERESnm+QjCJZcAdXWSwrEwKyYH5/K3kYTQUODLL01vVufdc7vdjq+//lpb+wBw2WWXoaamRlv7HEEgIiLZOIJwIc9GED7+mMmBVfjbSMLp08Df/647ClM1NTVhz549WmPQmRwQERGROTxLEHJyJIVhYd6QHDj4W5Jw//26IzDdjBkztLU9ceJEbW0TERGReTybYuTrF6HelBycy5+mG5l8fDqnGDnommbTq1cvtGh+3ohTjIiISDZOMbqQ+yMIv/2txDAsyFuTA8C/RhKefFJ3BKa7T8Myr3/961+1JwdERERkDvdHEH78Y+DkScnhWESPHsAvfgE89ZTa5EAItRfw/jCSEBYGnDplWnNWGEEICgrCN998Y2qb119/PQ4cOGBqmx3hCAIREcnGEYQLuT+C4MvJwZgx6kcOPv8ceOEFoL5eXRv+MJKgsv8sqrm5GTt37jS1TSskB0RERN5g27ZtukPwWKBb73r8cclhWIQjOZg3DxgwQF07n38O/O53wPr1QE0N8Mgjxp1wFRxJQksL8NZbatrQ7bHHjP70I4888gg+/vhjU9p6+umnTWnHG3z33XeoqKjA0aNHcfToUdTW1qKpqQmNjY1oamoCAAQHByMkJAT9+/dHTEwMYmNjMWjQIFx88cWao5fr2LFjOHToECoqKlBbW4uGhgY0NjaipaUFISEh7f2QkJCA+Ph4JCYmok+fPrrDNs3Zs2dx9OhRVFZWorq6GnV1dTh58iQaGhrQ3NyM5ubm9tcGBwfDbre3nzfh4eGIjIxEdHQ0YmJi0Lt3b41HYo5PP/0UFRUVOHToEKqqqn5wPgUEBCA0NBRhYWGIiopCTEwMBg4c6PV3aLvyySefoLKyEpWVlaiqqmr/nWlsbERrayuCg4MRFBSE4OBghIeHIzY2FrGxsYiLi0Pfvn11h6/V559/3v7dq62tRV1dHerr69HY2IicnBzcfvvtymNYvnw5ioqKXHrPli1bFEXjHvemGPXr53t3bs9NDgYOVNeOIzn44x+BpiagTx9gxgy1SQIAlJUZU6befltdG7qYOM3IClOMHMyabtOvXz/UW+T7rmOK0c6dO7F3717s3bsXZWVlaG1tdaue2NhYDB8+HCNGjEBWVhZ+9KMfSY5UrVOnTmHTpk3Ytm0b9u7di8bGRpfeHxAQgOTkZKSlpWHUqFH46U9/2uXrZX7WZnxvP/jgAxQXF6O0tBQHDx7E0aNH3T5XzhcTE4PExEQkJSVh2LBhSE1NVXZMZvb722+/jW3btmHXrl2orKx0uf6wsDCkpqYiPT0dWVlZ6Nevn7uhard7927s3bsXJSUlKCsra7/h4I64uDikpKQgJSUFI0eOxGWXXSYx0u7p+O6+9dZb2LhxI4qLi1FdXd3p6+bNm9fhTS8r/NtuuSm0wh3GjHbfKT16CDF2rBAffuhWdzjtxAkhHn1UCLv9h+336SPEb34jxKlTatt//30h/uu/9Pe3imISAJYpU6ZMUX68DQ0N2o/z3GKWkpISMWnSJBESEqLkOIKCgsS4ceNEUVGRacfkrpKSEpGZmSkCAwOl9sHAgQPF2rVrO2wzOjraK86bHTt2iOzsbNG/f39TvwdBQUFi/PjxYvPmzVKPp6ioSHm/19fXi6eeekpERkZKbSsgIEBkZGSIHTt2SO0TlQoLC0V2drYICwtTer4MGTJELF26VNTV1Sk/ptTUVFO/u4sWLXLpXJo3b16H9Zj5/XX3WM3mekTr1um/GJRdrrpKX3LgKGYmCXFx+vtcdnnxRbX99m+6f0DOLTabTfnxjhw5UvtxmvkDun37djFkyBBTjykpKUls3bpV+bG56siRIyI9PV358SckJIjCwsIftG3lBKGtrU0sWbJExMTEaP8+ABARERFi/vz5oq2tzeNjU50g5ObmiqCgIOV9kpycbOnke/Xq1WLAgAGmnys2m01kZ2eL8vJyZcdmVoKwcuVKtxJzJgjOcz2igQP1XwzKLv/93wq69hzdJQeOYlaSkJGhv89ll4QEtX32b7p/QM4vsu8gni8gIED7MZrxA1pYWCgGDRqk9diGDRsmjh49quwYXfHII49IHzHorsyYMaO9fasmCAsXLhShoaHavwcdlbCwMLF8+XKPjk9VgrB//34RFxdnep+MGzdOtLS0ePqxS5OXlyd95MTdkpmZqeT3RnWCUFtbK5KTk92ujwmC81yPCBa4GJRdRo9W0LX/duqUc8mBo5iRJIwerb/PVRQT6P4BOb/ExcUpO9YNGzZoPz7VP6AtLS1i3Lhx2o/LUWw2m1iwYIH043TWkSNHRHx8vLbjHzZsmBBCSL+I8tSuXbukJy2qSnJysjh58qRbxyk7QSgsLBR5eXnCZrNp64+wsDBRUFDg8TngiQMHDojBgwdrPzfOL4GBgWLOnDlSj1VlgrBp0yYRHBzsUX1MEJzHBAEKE4RTp4yLfWeTA0dRnST4aoIgYYi9O7p/QMz8UdFxx8/MYy0oKFA+99fdkpqaKvVYnbFx40ZTpn90V5KTk4XdbrfMeTN16lTtfeJqCQkJEdu3b3f5WGUnCAMHDtTeF44ye/Zsj84Dd82fP9/00ThXS0JCgrRpR6oShCVLlkipjwmC81yLaPly/ReBKoqKBMGRHPTp415MffoI8dRTQnz1lfzYfDVBWLRIfl+dR/cPSEdlwoQJfnOsssyaNUv7sXRXoqKiRGVlpbRj7srKlSu1H68Vz5uUlBTtsbtbAgICxIYNG1w6XtkJgtVKVlaW2+eCO0aMGKH9mJ0tNptNvCjhWT4VCcLChQul1ccEwXmuRZSYqP8iUEWRnSB4mhw4St++QjzzjPwkwVcThPh4uf3UAd0/IJ39sMv24IMPaj8uVT+gGRkZ2o/D2RISEiL2798v5bg7s2LFCu3HacXzJjExUXvcnpbAwECxb98+p4/Z1xMEAGLUqFFunQ+uaG5u1jpVz5Mya9Ysj45ddoIgewSPCYLzXIsoIED/RaCKIjNBkJUcOIqKJMFXEwQTvmC6f0A6K/n5+VKP09N5nlb9ATV7hSIZJSQkRBw5ckTCp3qh7du3az8+K543Vpwv7m4JDQ11+rj9IUEA1I4kNDU1iaioKO3H6EnJyclx+/hlJwiyCxME5wXAFW1tLr3c75w5AyxbBjz/vPHfMnz55fd1fvONnDrJ5zzxxBPS6vrHP/7h8iZY3uCmm27Cvn37dIfhsoaGBgwZMgRnz56VXndWVpb0Or3dXXfdhf379+sOQ5rTp0/j1ltv1R2GpWzatAlz585VUnd8fDxqamqU1G2WvLw8TJ8+XXcYpJnzCcJnnykMw0dUVclNDhwcScKJE3Lr9UXHjumOQAt3diHtTE5OjrS6rGL06NEoLS3VHYbb6uvrkZCQILXO6667zqPdWn3RmjVrsGHDBt1hSLd3714cP35cdxiWsmjRIvztb3+TWufVV1/t9cmBw8qVK7F48WLdYZBGzicI+fkKw/ARp07JTw4cvvwS+OorNXX7knXrdEegzc9//nMp9ZSUlEipxyrmzp2LrVu36g7DY0ePHsXYsWOl1PXYY4/h4MGDUuryJdOmTdMdgjJjxozRHYLlZGZmSqtr9OjRqKiokFafFeTm5uL//u//dIdBmjifIGzcqDAMIkk2bdIdgTYFBQUe1/Hcc89JiMQ63nvvPSxatEh3GNJs3rwZb731lsf1LF++XEI0vuXuu+/26REVb5xep1pdXR1+8YtfeFzPH/7wB5+4CXG+trY2jBw5UncYpInzCQLvNpE38LE7OK5obW3FmjVrPKpjyZIlkqKxhoyMDN0hSDdlyhSP3n/bbbehtbVVUjS+w4ypRbGxsRgxYgQyMzMxfvx4ZGZmIjU1FbGxsQgMDFTe/ieffKK8DW+zceNGj5/vmTVrlqRorKeurg533nmn7jBIA+cThJYWhWEQSeLnFz7z5s3z6P21tbWSItFv4sSJqKur0x2GdPX19bjvvvvceu/XX3+NoqIiyRF5v8WLF6NN0SIcqampWLt2LU6fPo1jx45h9+7d2LJlC1599VVs2bIF7777Lo4dO4aGhgZs374d6enpSuIAjHnldKHU1FS333v77bejublZYjTWU1BQgI8//lh3GGQy9bcsiMg01dXVbr/3rrvukhiJfusUPo+SkpKC9PR0DBo0CLGxsQgODkZAQADq6+tx8uRJHDp0CLt27cKuXbuU3K1fvXo1XnrpJZffZ8Z0geHDhyMjIwODBw9GVFQUAgMD0draipMnT6KiogJ79+7F1q1bcfr0aeWxOEvFlCubzYa8vDxMnDjRqdf37t0bd9xxB+644w6sWbPG45Gijmzfvh3PPvus9HrdZbfbkZ6ejrS0NCQmJiI8PBw2mw0tLS2ora3FwYMHsX37dhQWFiod9SotLcWZM2fQp08fl9537NgxFBYWKorKEBMTg8zMTAwZMgRxcXHo378/AKCpqQk1NTUoLy/Hjh07UFRUpLSPMjMzOQLlb5xeEBUWWONeVZG1D8KePWrj/OADOXH68j4IgJw+6gSgf63k7oq7GwHZbDbtsXdXnDV06FAl7WdkZIjy8nKn4zhx4oSYMmWKklgyMzNd/oxVfjapqaniwIEDTseyaNEiYbfbLXHeqGhz48aNLn8+55o5c6b0mAIDA7ts06x9EAICAsS0adNEY2OjU31RWVkpsrKylMY0bNgwlz8jlZvpRUdHu7QTdm1trcjJyVHaR4WFhd3GwX0Q3C9W49wIwj//6dTLiCzh44+Ba67RHYU227Ztc/k977zzDlp8ZBrhd999J30lJrvdjlWrVjl9N9jhxz/+Mf785z9j+PDhmDJlitRpLK4+FPnQQw9Ja/t8ubm5+O1vf+vSex5//HGMHz8eaWlpOHLkiKLIunf48GHpdaampnq8qtizzz4rfWTDCs+ehIaGYtOmTbjtttucfs8VV1yB119/HX/6058wbdo0Jb9Ve/fuden1Z8+eRXl5ufQ4AGPFqTfeeMOl91x66aV46aWXMH78eIwbNw719fXS45o6dSpHEZw0YMAAJCcn6w7DM06lEQUF+u8KqywcQfCtInlX4XMB+u8yOFPy8vJcOq6BAwdqj9mZ4oy0tDSpbdrtdlFWVubO6fID8+fPl94f8+fPd7r9kJAQJZ/JggULPO6buLg4befNvHnzpLdXVVXlcZ8IIURkZKSpfaF6BCE0NFRUV1d71Ce7du1SNtrpyvcpPT1dSQzZ2dke9Y8QQtTV1Ynw8HAl8TU3N3fZtq4RhPj4eJGTkyNWrlwpCgsLRVlZmTh69Kg4dOiQKCsrE4WFhSI/P1/U1dV1GLfseFatWuXx56ibc//iLlqk/6JPZWGC4Fvlqafk9FMHdPzwuVOioqJ88rh0HEtBQYE7p0qHkpOTpcYWFhbmdNsqPo9x48ZJ6ZempiYRFBSk5bxRcUEjS0ZGhqmxqUwQAgICXJqC1pWXX35ZSYwRERFOx6Ci/REjRkjpHyGEqK6uVpJIpaWlddmu2QlCVlaWlBs4suOqrKz0OCbdnFvFSOPwL5HLeL6ipqYG3377rVOvffLJJxVHY55nnnlGan1jxozB6NGjpdUne+pTfX29U5/zY489JrVdAAgLC8Nrr70mpa7evXt7vAKXu2RvGBcRESGtrujoaGl16TZr1ixcd911UuqaPHmyko3fTpw44dTrXn31Velth4SEYPfu3dLqu+yyy7Bw4UJp9TmofijbWTExMSguLsbrr7+On/70p7rD8UlMEMj38HwF4PzOqStWrFAciXlkLuMYEBDg8jzg7vTs2RNDhw6VWqczu/+qWNFJ9gZ0c+fORVhYmNQ6nSF7NSWZn6+vLDvcv39/LF68WGqdb7zxBoKCgqTWCQDr16/v9jULFiyQ3q6KOh999FHExMRIrbOtrQ3/1PxcanJyMv75z3/i5ptv1hqHr3MuQXAyqyayhJMndUfgErvdrqTeHTt2dPuaU6dOKVlucsCAAdLrdIazdwCdIftC3kH2xfomJ3YPl9kvgHHOursXQ1fmzJkjvU6zDRs2TFpdvrL7sarRofvvv196nc8//3y3rzl06JDUNoODg/HrX/9aap0OKpbwnTFjhvQ6nZWYmIj33ntPW/v+xLkEoaFBcRhEEilYvUGlnJwcJfW2tbXh97//fZevmTBhgvR2Q0JClNwN644zd/5coWJ4HgAuv/xy2Gw2afU1aPh9HjdunJJ6VUyF6s7p06ellunTp0uJ6+mnn5ae2OkQEBCg7OL3ueeek15nWVlZl3//+eefS28zOztbep0Oo0ePlvp7AwC7du2SWp+zgoKC8NFHH2lp2y859aRCUJD+B09VFj6k7HtFEUD+Q1aNjY3KHuzq7qG7gIAA6W3OmTNHWV91RfYDwJ6uttKV6OhoqbHu3bu307by8/Olfw7drWTiiZiYGFPPG6spLi4WI0aMUPL96a4vVDykPHToUKX9pWIvgq7k5uZ63fk5ZswY02JW+ZDy0qVLlfWR7Fh94SFl5/ZB8PFtxIl0uuiii7BhwwZERkZKr/vEiROd7hC6fv16qevyO/zv//6v9DqdsX//fqn15ebmIi4uTmqdDrLXcV+5ciVuueWWDv/OmSlIrurVq5f0Oh0mTJigbPTGij7++GPs378f+/btw44dO1BZWak7JKlyc3OV1j979mxMmjRJap1ffPEFLrnkkg7/bsOGDVLbCgx07jLMEwsXLsTmzZul1nn8+HFceumlUuvsSv/+/fHoo4+a1h4B6s9MIurWpZdeioiICCVTCrKysrBz584L/n8V84JVzdt3huxNoFQ82KtKV0P+paWlUtsKDg6WWt/5cnJyfCpB+Ne//oXq6mrU1NSguroa1dXVqKqqQlVVFSorK9Hs4zfg7rjjDqX1T5w4UXqCsHHjxk6nislO4AYNGiS1vo5cddVV0uvMz8839YJ91qxZprVFBiYIRBaRm5ur5OGvzpalU3Gn0psuqn1JVw+ay046Bw8eLLW+811xxRVK61dBCIGDBw/iwIEDOHjwII4cOYKjR4+isrLSZ3Yo9yfbt2+X9ixJd7KyskxpR7Zdu3aZmiA8/vjjprVFBucShKAgTjMiUuzXv/41Zs6cKX3aT1tbG373u9/94AHQBx54QGobgDEEfPnll0uv1xnvvvuulnb90ZAhQ3SHoN0XX3yBkpISFBcXo6SkBAcPHmQi0AEzps8AQGhoqNTV2Lp7UFmmjIwMU9qR3Ueyp3R2RebeIuQ851YxCglRHAaRRIqnQKg0atQoJfUuXbr0B/9bxZ1+nUPAxcXF2tr2N7GxsbpD0OLw4cN4+umncd111yE8PBxjxozB8uXLUVZWxuSgE2adK7Kn6ZzsZKnsb775Rmo7AHDNNddIr7MjycnJUuurq6uTWl9XVGyKR91jgkC+R8NmS7Js2bJFSb0nT57EF198AQD46KOP0NTUJLX+gIAArUPAsnfD9UZmbV6k4mF6K3vzzTdx6623YsCAAXjqqad4rrnAjPn1gPyL385UVFSY0o4KZvWRCs5sBknyOZcgcHiHvEl4uO4IPKJq5Zzx48cDULO50IgRI6TX6Qpf2XHWE2atfqP6IWWreO+993DjjTciMzMTe/fu1R2OV4qOjjalHbNGKrx5XwqzPgsVzBploR9yLkGIj1ccBpFEXn6+LlmyREm9RUVF2LNnj5LdWWUvoeeqei/bHE8Fs4b8GxsblbcREODcP02qPPzww0hJScH777+vNQ5vZ9Zok1ntqNh13iycx0+uYoLQqxcga2nGyy5T11fx8UAn6zK7bOhQ47h9lZefr3feeSeCgoKU1J2ZmSm9zsjISFx00UXS63WFGRetVmfWKIqvjyQBYd4AAB/TSURBVNbcdNNNWL58uZI9QvxNaGioKe2EmzRqLHtqppnM+izIdziXICQkKA5Dk169gJwc4N9TLzwWEwM8+aT8C9T4eKNeWXcAxo83jttXkwQvTxAASF/X26GhoUF6nSr2U3CV7jvOVqDis+3I0aNHlbeh6+L82muvlb5vhD/ztT0evPl3hg/Sk6ucO9sHDlQchgaO5GDOHCAqSk6dP/oRcNddcpMER3Jw111G/TJERRnH7atJgg+cry+88ILuEJwSGBioZMlUV/Xv3193CNqZdYewpKTElHbMdsMNN6C8vFx3GD6ls9WAZDNrVCvMixfAMOuzIN/hXILghRvXdElFcuAgM0lQkRw4+HKS4CMPNKnekEoGVcuyusqsKQZWFmLSanO+uIrPAw88YOra9/7CrAv3mpoaU9rx5nn8ZvUR+Q7vHS9zV2AgcO+9apIDBxlJgsrkwMGXkwQf8OKLL+oOoVtvvPGG7hAAADExMbpD0K6zEQTZyZM3z8PuyKeffmqp71pCQgKmTp2KrVu3ev2mdIcOHTKlHbNGfrx5JSAzNzYj32DONodWERgITJ6sNjlwcCQJAPDMM8CRI86/14zkwMGRJABAXh7w7bdq2yOn/fSnP5W++6VMVtowKzk5GatWrdIdhlZRnfympaSkoKCgwORo3Pf000+b2l5aWpqp7QGAzWZDbGws4uPjkZCQgISEBMTHxyMxMREXX3xx++tKS0uVrDpmFrMu3M3aKPHSSy+VXuepU6fQr18/6fWeT/bUQLvdLrU+sh7nEwSbDfDmh1wcycFvfmOsNmQGd5KEmBgjRjOSAwdfShICfSvnnTFjBubPn687jA4tWrRIdwjtUlNTpde5bdu2Ti+6rei6667r8P8fNWqU9AThhRdeUPbsyerVq5XU25HPPvtM+eZXNpsNQ4cORWpqKpKTkxEfH48rr7zS6fd6M7Nubsh+cN6s6XoAsHXrVvzyl79U3o7sKUYJvrp4DX1POCspSQjAO0tgoBD33itEZaXThytVa6sQr7wiRHx813HGxAjx0ktCtLToifPTT4WYPl2Inj31f2bulsREpV0EQHrR0aanxWazWa6vzP5cvEV9fb30vomLi1MWr5nnTUpKirLvyNChQ0V+fr5o8eD3fPbs2aae10VFRV75PZIdc0pKimltjRw50iv7aNasWR22k5qaynMIEJW6rjclcv4ZhHHjnH6ppZw7cqDrYWtnnklwjBxMngz07GlufA6OkYRJk7z3TnxWlu4IpBs2bJjuEC4wXtbSwKRc3759pdepaqnTu+++W0m9nVGxpGloaCjy8/Px17/+FXfddRd6evB7btbmdyp98MEHukNwWVeLL8heLcyMVcGEENLrHDNmjPQ6yWKcTiVqavTfHXa16B45OJ9jJCE21lojB+errDT6LTBQ/2foajl6VGnXQPJdBme+gnV1dUraVRmzjr4KCQmR2lZ1dbVTx+kNAgMDpX8Wo0aNkh5nQECAqeeN7HYCAwPFoUOHpPXHsGHDTP0OqRhByMjIkNYfHXn++eelx9zVd3/cuHGmfiYyzJw507SYOYJgFP8aQfjJT5x+qSVYYeTgfI6RhNxcY8QAsMbIwfmuuOL7mLxtJMHJub3epF+/foiMjNQdRrsBAwboDqFDw4cPl1rfggULpNanU1JSkvQ6t27dimPHjkmr7+abbzZ1gzQVK3Dl5ubi6quvllafL+zLsGvXLqX1L1++XHqdl3XxnOKMGTOkt6d635u1a9cqrZ98lGvpRID+O8TOFKuNHJyvpcUYMbjpJmuNHJzPG0cSFIPkuwzOfgVXrVqlpG13SmFhoSX7qqysTGpbYWFhTh2nN9i6dauSzyMmJkZKfLm5uUrP2Y5MmTLF1PPTHWZ/h1SMIAAQu3btkt43qvooMDDQ9Dajo6OV9c+JEyekxztw4MBO2+MIglGOKp7NYAbXej4xUf8FYHfF6smBQ0uLELt3Wzc5cPCmJCE+Xnl3qPjH01kqpom4Wux2u6X7SnZ7vjTNSNU5kZqa6lFcS5cuVX7edmTgwIHavhvOMvs7pCpBiFf025yVlSU91q4eUHYIDw+X3m5ZWZmSPlLxIP6mTZs6bY8JgtrP00yubZSWk+PSy01nxWlFnenZExgxwjrTijrjTdONsrN1R6BUZmam7hCQbfE+lj39KcuHHnpXtclTcXExbrjhBpw5c8bl9953332YNWuWgqi6V11dLbU+2UvivvPOO1Lr0+nIkSNYv3691Dq/+uorbNq0SWqdADDHseR3F1T8DqpY+OGDDz5Q8iD+2LFjpdfpa464sveVVbmcUsACd4o7Kt4ycuCtvGEkoa1NeTdA8l0GV7+CKtr3pli7s2nTJultbt682aXjtqrVq1crPTdCQ0PFsmXLRGtra5dxtLa2ihUrVojIyEit563sB6ITEhKkfl6DBg0y/TukagQBgAgJCZHaPwMGDDC9f86lou3c3FypfRQVFSU9xu7Oc44gGOWee+4xJW6VegghBFzRo4dLLzdFQIBxh/vJJ60/cuDN/vlP4Le/BdasAVpbdUdzIRdPZXf0UHD+u/IVvOqqq7TdmRg8eDD+/ve/O/16XX3Vq1cvtEjc1DE4OBgHDx7EFZJ+W3bu3Cl1c66HHnrI6df27NkTrYq/u0FBQRgxYgQGDRqEiIgIBAcHo7GxETU1Ndi/fz+Ki4vR3NysNIbzdXTe9O7dW2ocdrsdX3/9tZS6PvnkE8R3tiS2h7r6Du3Zs0f6w/7nSkxMxEcffeRxPWPHjsXmzZslRPRDCQkJOHz4sFOvveaaa3Do0CGp7QcEBGDz5s0YPXq0x3XdfvvtKCwslBDVDxUVFeHWW2/t9O9vueUW6Ttbu3qZ6g7Z/16Fh4fj888/l1qn6VxOKQYO1H+n+NwSECDE3XcrX95SnDplyh1qj7S1GXGqZNWRBMl37zoDyXcZXP0Kbtu2TUkMzpT9+/d7RV9lZ2dLbzc0NFTKg5Zz5syRGper894nTZqk7fzRWToSERGh5fx0RlxcnKl94aByBMFREhMTxenTp93um8zMTGWxbdiwwek49u7dqyQGm80mVq9e7Xb/CCHE8OHDlcQWGhrabdscQfi+vPzyy0613djYKIqLixUfoetc7/l16/RfDDqKIzmoqFDQNef49FMhHntMiLfesm6S0NZmxPfYY0a8KlkxSXjxRbXH/G8qfkRcZbfblcTRVXFneoDOvlK1nn5OTo5bDy4XFRWJpKQk6fHMmTPH5Vis8LC72aUjKvYYWLhwocufx/lGjhxpel84mJEgAMaFZl5enkv9UlJSIhISEpTFFBQU5PJn1b9/f2XxTJgwQdTX17sUz+bNm5VMK3KURYsWdRsDE4QflsTERJGdnS3mzZsnli5dKhYtWiSeeuop8eCDD4qRI0eKuLi49n+vrMa9iGCBC0Izk4Pp04Xo1UuIpCRrJgmO5CApyYhz+nRzkoRf/tI6S9+aRMUPiKumTZum7Mess+LO3FidfXXPPfco64uAgACRnp4uVqxYIcrKykRTU9MF7Tc1NYmSkhKxaNEikZiYqCQOm83m8mcihBAzZsww/fzRXTry1FNPKflM3L0TWFdXJ4YMGaKlLxzMShAcJS4uTsyfP1+8//77HX6PKioqxKpVq5Qkc+eXadOmufyZrV27VmlMQUFBYsqUKaKgoEDU1NRc0H5TU5MoKysTixYtkr4q1/nFmdEDIZggWP04XeFeRGFh/pccONq2WpJwbnLgiNGsJOHoUeNz0J0kmLhevVV+FLzhh0t3HDabzbT+CQkJETExMSI6Olr6js6dlRkzZrj1uQihZnqNlUtHDh48qKStwMBAMXPmTKdHmmpqakRubq5p501XzE4Qzi0BAQEiLCxMxMTEiPDwcFO/v87sfdAZldPBzi92u11ERESImJgYERoaqmyktKPyopOj9EwQrH2crnAvotmz9V0M9uihLzlwFKskCR0lB45iVpJQUaE/SZg1S+0xnsMqPwoqpqt0VoYOHeqVfaXiDrFViqcrwpSWlmo/BjOLmefouWXAgAFiwoQJIjc3VyxdulQsX75cLFmyROTm5orx48crW4nHnb4QQm+CoLN4kmxXVlZqj191SUxMdLo/mCBY+zhd4X5E0HQxGBSkNzlwFN1JQlfJgaOYmST07avvnDCRVX4UVN397Ki4u1mYFfpKxwWYGcXV+dsdUfEwt1VLZ8y6a2+l0hV/TBBkLL96//33az8OVSUwMLDD6V+d8dYEwQq/BVbjfkTh4XouBi++WOLhd+DECSEefLDr5MBRdCUJziQHjmJWknD55XrOBxOnFwlhjYteh7CwMOU/WOHh4V7dVy0tLSIoKEh5P5lZhgwZ4vZncj4z5rxboXRm9uzZ2mOzSl8I4Z8Jgqx9Tnz1ZsTy5ctd6gdvTRDGjRunva+txv2IFizwvQThxAkhHn3UGKVwNh4dScK2bc4lB45iRpKgK0F44gl1x9QBK/0ozJ8/X/kP1pIlS7y+r/Lz85X3k1lF9mZTQghlD1FbqXRFd2xW6gt/SxAyMzNlfpVEaGio9mOSWcaPH+9yH3hrgnDo0CHt/W01nkUEH0oQHMmB3e56TGYmCbt3C3HDDa7HqDpJ0JUgmMxqPwoqf6wCAgIsF5u7cnNzlfaVWaWwsNCjz6QzqldA0V26kpWVpT0+q/SFPyUI0dHRMr9CQgghDhw44DMjlu4+e+atCYIQ5i5sofM4neVZREOG+EaC4Ely4ChmJAm7dwtx003ux+hIEo4flx+bjgRh8GD5x9ENq/0ojBgxQtmPVXp6uk/11dSpU5X1lRnFmTXIPaF6/X1ny8iRI0VwcLCp542OvUV0la74S4IQHBws6urqZH11fmDHjh3aLzQ9LcnJyW4fvzcnCDk5OVr73Wo8i6i83PsTBBnJgaM4kgQVPE0OHKVXLyEeftg4bpl0JAhlZXKPwQlW+1FoaGhQEhMAlx5M84a+EsJ79wBwZ0M0dyxYsEDrRmozZ84UQggRGRlp6nmzevVq7Z+xWaUr/pAg2O12sW/fPinfl84UFhZKT3LNKqmpqR4duzcnCELofVjZajyPqH9/700QZCYHjpKUZFzMyyQrOXAUu904bplJgtkJgpObtshmxR8FFTtnRkVF+WRfCSHEsmXLTF0/3NOyYMECKcftrPLyctMfXo6Ojhbbtm1rjyE6Otr080bl5npWKl3x9QTBbreL0tJSj74fzjpy5Ij081h1yc7O9vi4vT1B2LRpk7b+txrPI1q2zHsThDlz5CYHjnLTTUJ8+KGcGD/8UG5y4CiOJEEWsxMExdMtOmPFH4W8vDzpMTm7KY639ZXD3r17pd+lll2Cg4PFxo0bpR2zqzZs2CDi4+OVHmNoaGiHCVB4eLiW88Yq06xUlq6oSBBiYmK0HzMAERERIcrLy13+HngqIyND+7F3V4KDg6UsnSyE9ycIQggxa9YsLZ+D1ciJyGbzzgRB5VKtL7wgJ8YXXlAXo90uJ0YhzE0QbDZ5cbvIqj8KMqeFeLKr6Lms2lfnsupd49TUVHHy5Enpx+uObdu2iczMTKnnWEpKinj55Zc7bVPmg56uPmw/adIk7Z+/oyQnJ0u/WOmKigThyJEj2vcJSE1NFW0aNzbNy8szZVlqd8rw4cNFbW2ttGP1hQRBCCHmzZtn+mdhNXIimjbNOxOEiy9WF+ezz8qJ8dln1fanLGYmCDk58uJ2kVV/FMaPHy8tnjFjxkiJyap9db6ioiIxaNAgJfG6WiIjI8XatWuVHKenGhsbxcaNG8W0adNEUlKSS3N1o6OjRVZWlsjLy3Nq4z2ZfRoREeHysa5cuVLrajTBwcFi4cKFSvqjKyoSBId169aZfpFst9vF0qVLXf78VWhpaRHTpk3T+ozPuSUuLk7JCKWvJAhCGDdHzBxpthp5EQUGMkE4tzBBUFMk3d12l5V/FHw1HrN+QAsKCkRSUpKSuLsrUVFRLm9IZAW1tbWipKREbN26VWzYsEHk5eWJVatWifz8fLFt2zZRVlYmGhsbXa5XZt+OGDHCrWOrrq4WmZmZpp4HdrtdPPjggxf0WWxsrCnfIZUJghDGRfKUKVNMeQZowoQJlhmFO1d1dbWYOXOmtoeYk5KSxLp165Qdny8lCA6LFi0SERERyj8bq5EX0f33M0E4tzBBUFMkPETlCSv/KCQkJHgcS2xsrLR4rNxXXSktLRU5OTnKV7Ow2WwiIyNDFBQUmHJc3kRmP8+bN8+jWEpLS0VWVpbSi9rBgweLZcuWdbpy2LJly0z5DqlOEBwqKirE1KlTpV8kBwUFiUmTJml51sBVra2tYsWKFWLo0KHKE6b+/fuL7OxsUVxcrPy4fDFBcCgoKBBTpkxRMqrg6b5DKvQQQgjI0qsX0NIirboOXXwxcPq0nLpCQ4GvvpJT1/mefRaYOdPzepYvBx5+2PN6OiPr44+JAf71Lzl1dSYwEPjuO7VtdOPdd9+VXuctt9wirS5P40tJSUHPnj0tEUtHZPaVM3bv3o3CwkKUlJRg//79aG5u9qi++Ph4DB06FGlpaRg1ahR69+4tKdLu/Uvy9/Pyyy+XWp/D2bNnERgYKK2+0tJS/OxnP/O4nlOnTmHTpk0oKChAaWkpGhoa3K4rKioKKSkpSEtLw4gRI5zqS1nfp66+Q3v27MHw4cOltOPQ1SWGEAJ5eXnYvn07CgsL0djY6HL9ISEhSE1NRWZmJiZMmGDqd0qW48ePo6CgAMXFxSgtLUV1dbVH9QUFBSEpKan9HLvtttskRdq948eP48iRI1LrNPt33xmfffYZysvLUVVVhZqaGtTU1KC+vh4NDQ1oaWlBU1NT+2vtdjtsNhsA43wNCQlB//79ERkZiZiYGMTFxSEhIcFy567cBOHhh40LWpWYIMjlTQnCtGnAH/6gtg2iTgghsH//flRWVqKyshJVVVU4efIkmpub0dTUhIaGBtjtdgQGBsJutyMiIgIRERGIiYlBQkICEhMT0bdvX23x9+jRQ2p9Mv/pONfDDz+M5RL/HVEV54cffojy8nIcOXIEtbW1qK2tRVNTU/uFgd1uR3BwMEJDQxEVFYXo6GjEx8dj0KBB6Nevn5KYPGV2gnC+9957DxUVFSgvL0d1dTUaGhrQ2NiIlpYWhISE/KA/4+LiMHjwYFx77bVS47WC48eP49ChQ+2/M9XV1WhsbGy/+GxubkZwcDCCg4Nhs9naf2diY2MRGxuL66+/XvchkA+QmyAAQN++8i7gO8IEQS5vSRBCQtR9VkR+QHaCsHbtWkycOFFqnQDQr18/1NfXS6tPVYLgi3QnCERkHQHSa1y6VHqVRFi0SHcERHSOhQsXSq/z3XfflZocBAcHS6uLiMifyE8Q7r0XiI+XXi35sdhY4Fe/0h0FkVcLDQ2VWl9FRYX0u8PZ2dlS6xs1apTU+oiI/IX8BAEAtm9XUi35qa1bdUdA5PXS0tKk1zl06FBpdc2dOxeVlZXS6gOAJUuWSK2PiMhfqEkQrrwSmDBBSdXkZ8aNA665RncURF7viSeekF5naWkpHn30UY/reeWVV7BI8jRCm82Gn/zkJ1LrJCLyF2oSBABYvx7o319Z9eQHwsKA117THQWRT1C12suyZcswduxYfP755269/3/+538wadIkyVEB99xzj/Q6iYj8hboEAQDWrlVaPfm41at1R0DkUxITE5XUu3nzZkRHR2PixIl4++238V03+5V89tlneO6553DllVdi/vz5SmL605/+pKReIiJ/IG83mo7ccQeQlQVs2qS0GfJBo0YBo0frjoLIp7z44otISUlRUndLSwvWrVuHdevWITAwEPHx8YiLi0NYWBhsNhuam5tx4sQJVFRUeLwRVHcmcIorEZFH1CYIAPD668BPfgLU1ipvinxERATw5pu6oyDyOT/72c8QGxsr/WHg87W2tuLQoUM4dOiQ0nY6EhQUhPXr15veLhGRL1E7xcihsNCUZshH7NihOwIin1VQUKA7BKWWLVumOwQiIq9nToJw9dWAghU0yAfNng1cd53uKIh81rXXXoucnBzdYSiRnp6OX3HPFCIij5mTIADAM88AI0aY1hx5oeHDgcWLdUdB5PNeeuklZQ8s65KQkIC//OUvusMgIvIJ5iUIALB7NxAdbWqT5CWiooB33tEdBZHf+OijjxAVFaU7DCmioqJw+PBh3WEQEfkMcxMEACgrA+x205slC7PbgX37dEdB5HcqKioQHh6uOwyPJCQkKH/omojI35ifIFxyCbB5MxBgftNkURs3GitdEZGpLrroIlRVVSEhIUF3KG5JS0vD4cOH0bNnT92hEBH5FD1X6f/5nwBXmiAAWLIE+K//0h0Fkd/q3bs3Dh8+jDFjxugOxWk2mw0LFy7Ezp07dYdCROST9N3Gf+ghYMYM19/33XfAv/7lefvHjgEtLZ7X05mqKiNWT7S2yjnWrnzyied1VFcDTU2uv2/aNOCxxzxvn4g89sYbb2D16tUIDQ3VHUqXUlJScODAAcydO1d3KEREPkvvPJ/nngMmTXLtPc3NwPz5QHExIITrbba1GQ/DPv008O23rr/fWTt2ACtXAidPuvf+ujrj/ar3BHj6aWOfirY2198rBFBSYnwep0+79t4JE4A//MH1NolImV/+8peoq6vDgw8+iMBA9ftouiI2Nhb5+fn429/+hquvvlp3OEREPq2HEO5cZUs2dqzxXIKzevQAhg0DJk823hsc7Nz7GhqM+e5r1wJ//at7sbrikkuMC+FJk4DBg51/34EDRozr17ufYLjippuMGH/xC+Dii517z9dfA2+8YcRZVORasjZqFHdKJrK4zz77DEuXLkVeXh4aGxu1xTFgwADMnj0bkydP1haDv9izZw+GDx8utU4rXGIQkeuskSAAwOjRwNatrr3niiuMC9uJE4Err+z6tf/4h3Ex+8orwKefuh+nq3r2BNLTjWQmIwPo1avz17a0AG+/DaxZA2zf7vkUJVdERRn9OGkS0N0Di5WVwLp1Rpyurh6Sng5wrXIir3H27FmsXbsWa9euRXFxMdrcGW10UXh4OMaMGYMJEybg5ptvVt4eGZggEJGDdRIEALjzTqCgwLX3XHQRMGYMMGWKMapw/upIZ88aU4peftmo+5tv5MXrimuvNS6+774buPTSC//+xAkgP9+46D540Pz4ACAoyEjUpkwBbr8d+NGPfvj3bW3Au+8aMb7xBuDqXUWOHBB5ta+++go7duxAUVER9u3bh/LycikJQ3R0NJKSkpCcnIzhw4fjhhtukBAtueOrr76SWt/Fzo5KE5GlWCtBAIwL6Px81993883GBfi4cUBIiPH/ffkl8NprxsjB//t/cuN0R1iYMY1nyhTghhuMqVKAsTfEyy8DGzYAp07pjREAbrzR6Mvx442YAeDMGeD1142+dOf5jwkTjClTROQzvvnmG1RUVKCiogJVVVWora3FyZMn0dLSgtP/fi4pMDAQwcHBCAoKQkhICEJDQxEZGYnIyEjExsYiLi6OF5FERBZjvQQBAH71K2DVKtffd9llxoXtpEnGCkBr1hhTYWpr5cforh/9CEhLM2JMTwd27TIuunfsMEY7rOLSS4F77jHi7NXr++lZ7qyqlJMDvPSS/BiJiIiISDprJggAsHgxMGeO6+/r3duYqvTdd8YzDSpXKvJEQoKRIOzcCRw+rDuajvXqBfz3fxt/btni3lKmCxYAv/mN/NiIiIiISAnrJgiAMT1o0iS1+xWQGjYbsHq1MWWMiIiIiLyGtRMEAPj7343Vf06c0B0JOSsiwngg/MYbdUdCRERERC6yfoIAGA/EpqYam3KRtQ0ZYnxO56+AREREREReQe9Oys7q0cPY2GzGDN2RUFemTTNWi2JyQEREROS1vGME4VxvvmmsilNXpzsScggLA/LyjIfDiYiIiMireV+CABgrE2VkAIWFuiOh4cOBbduM1aOIiIiIyOt5xxSj8/XqBezeDTz/PBAcrDsa/xQcDCxfbuxSzeSAiIiIyGd45wjCub780tild8cO3ZH4j7Q0YwO6Sy7RHQkRERERSeadIwjn6tsX+MtfgPx8IDJSdzS+LSLC2FF5504mB0REREQ+yvtHEM43d64x9aW5WXckvsNmA2bONHa3JiIiIiKf5nsJAgAcPw488giwYYPuSLxfVhawbBlw2WW6IyEiIiIiE3j/FKOOXHop8OqrwP79QGam7mi8U0aG0X+vv87kgIiIiMiP+OYIwvneew9YuNBYjrOtTXc01paRATzxBHDjjbojISIiIiIN/CNBcPjkE2DpUuNBWz6j8D2bDZg0yZiWdfXVuqMhIiIiIo38K0FwOHMGWLECWL0aOHpUdzT6xMYau1JPnWqsBkVEREREfs8/E4RzvfMO8OKLwNat/jGqEBQEjBplJAa33647GiIiIiKyGCYIDmfPAhs3Gvsp7NoFtLTojkgem83Y3GzcOGD8eKBnT90REREREZFFMUHoyDffANu3G2XHDqC2VndErouIANLTjTJqFNC7t+6IiIiIiMgLMEFwxocfAkVFQGkpUFICnDihO6ILhYcDQ4caZdgw4PrrdUdERERERF6ICYI7jh0D3n8fKC8HDh40SnW1ee1HRQEDB35fkpKA//gP89onIiIiIp/FBEGWM2eAqiqgstL4s6oKOHkSqKsD6uuN/25oMF57+vSF7w8NNf4MCTFGA8LCjBIRAcTEfF9iY4E+fcw7LiIiIiLyK0wQiIiIiIioXYDuAIiIiIiIyDqYIBARERERUTsmCERERERE1I4JAhERERERtWOCQERERERE7ZggEBERERFROyYIRERERETUjgkCERERERG1Y4JARERERETtmCAQEREREVE7JghERERERNTu/wPkvNP1ojQnhAAAAABJRU5ErkJggg==;" parent="I9D4RKwkG700jf1nvvi3-1" vertex="1">
                    <mxGeometry x="463.5" y="664" width="143.84" height="38" as="geometry"/>
                </mxCell>
                <mxCell id="H-wepSP7h09MSPVRebRQ-10" style="edgeStyle=none;html=1;endArrow=none;endFill=0;" parent="I9D4RKwkG700jf1nvvi3-1" source="H-wepSP7h09MSPVRebRQ-4" target="H-wepSP7h09MSPVRebRQ-9" edge="1">
                    <mxGeometry relative="1" as="geometry"/>
                </mxCell>
                <mxCell id="H-wepSP7h09MSPVRebRQ-11" style="edgeStyle=none;html=1;endArrow=none;endFill=0;" parent="I9D4RKwkG700jf1nvvi3-1" source="H-wepSP7h09MSPVRebRQ-4" target="H-wepSP7h09MSPVRebRQ-7" edge="1">
                    <mxGeometry relative="1" as="geometry"/>
                </mxCell>
                <mxCell id="H-wepSP7h09MSPVRebRQ-4" value="Direct Connect&lt;br&gt;Gateway" style="outlineConnect=0;dashed=0;verticalLabelPosition=top;verticalAlign=bottom;align=center;html=1;shape=mxgraph.aws3.customer_gateway;fillColor=#F58534;gradientColor=none;strokeWidth=1;labelPosition=center;" parent="I9D4RKwkG700jf1nvvi3-1" vertex="1">
                    <mxGeometry x="277" y="150" width="49" height="51" as="geometry"/>
                </mxCell>
                <mxCell id="H-wepSP7h09MSPVRebRQ-6" value="TIERS Primary (us-east-2)" style="points=[[0,0],[0.25,0],[0.5,0],[0.75,0],[1,0],[1,0.25],[1,0.5],[1,0.75],[1,1],[0.75,1],[0.5,1],[0.25,1],[0,1],[0,0.75],[0,0.5],[0,0.25]];outlineConnect=0;gradientColor=none;html=1;whiteSpace=wrap;fontSize=12;fontStyle=0;container=1;pointerEvents=0;collapsible=0;recursiveResize=0;shape=mxgraph.aws4.group;grIcon=mxgraph.aws4.group_region;strokeColor=#147EBA;fillColor=none;verticalAlign=top;align=left;spacingLeft=30;fontColor=#147EBA;dashed=1;strokeWidth=1;" parent="I9D4RKwkG700jf1nvvi3-1" vertex="1">
                    <mxGeometry x="108" y="88" width="130" height="139" as="geometry"/>
                </mxCell>
                <mxCell id="H-wepSP7h09MSPVRebRQ-7" value="Transit Gateway" style="sketch=0;points=[[0,0,0],[0.25,0,0],[0.5,0,0],[0.75,0,0],[1,0,0],[0,1,0],[0.25,1,0],[0.5,1,0],[0.75,1,0],[1,1,0],[0,0.25,0],[0,0.5,0],[0,0.75,0],[1,0.25,0],[1,0.5,0],[1,0.75,0]];outlineConnect=0;fontColor=#232F3E;gradientColor=#945DF2;gradientDirection=north;fillColor=#5A30B5;strokeColor=#ffffff;dashed=0;verticalLabelPosition=top;verticalAlign=bottom;align=center;html=1;fontSize=12;fontStyle=0;aspect=fixed;shape=mxgraph.aws4.resourceIcon;resIcon=mxgraph.aws4.transit_gateway;labelPosition=center;" parent="H-wepSP7h09MSPVRebRQ-6" vertex="1">
                    <mxGeometry x="37" y="63.00000000000003" width="50" height="50" as="geometry"/>
                </mxCell>
                <mxCell id="H-wepSP7h09MSPVRebRQ-8" value="TIERS Secondary&amp;nbsp; (us-east-1)" style="points=[[0,0],[0.25,0],[0.5,0],[0.75,0],[1,0],[1,0.25],[1,0.5],[1,0.75],[1,1],[0.75,1],[0.5,1],[0.25,1],[0,1],[0,0.75],[0,0.5],[0,0.25]];outlineConnect=0;gradientColor=none;html=1;whiteSpace=wrap;fontSize=12;fontStyle=0;container=1;pointerEvents=0;collapsible=0;recursiveResize=0;shape=mxgraph.aws4.group;grIcon=mxgraph.aws4.group_region;strokeColor=#147EBA;fillColor=none;verticalAlign=top;align=left;spacingLeft=30;fontColor=#147EBA;dashed=1;strokeWidth=1;" parent="I9D4RKwkG700jf1nvvi3-1" vertex="1">
                    <mxGeometry x="398" y="89.5" width="137" height="140" as="geometry"/>
                </mxCell>
                <mxCell id="H-wepSP7h09MSPVRebRQ-9" value="Transit Gateway" style="sketch=0;points=[[0,0,0],[0.25,0,0],[0.5,0,0],[0.75,0,0],[1,0,0],[0,1,0],[0.25,1,0],[0.5,1,0],[0.75,1,0],[1,1,0],[0,0.25,0],[0,0.5,0],[0,0.75,0],[1,0.25,0],[1,0.5,0],[1,0.75,0]];outlineConnect=0;fontColor=#232F3E;gradientColor=#945DF2;gradientDirection=north;fillColor=#5A30B5;strokeColor=#ffffff;dashed=0;verticalLabelPosition=top;verticalAlign=bottom;align=center;html=1;fontSize=12;fontStyle=0;aspect=fixed;shape=mxgraph.aws4.resourceIcon;resIcon=mxgraph.aws4.transit_gateway;labelPosition=center;" parent="H-wepSP7h09MSPVRebRQ-8" vertex="1">
                    <mxGeometry x="37.44" y="60.50000000000003" width="50" height="50" as="geometry"/>
                </mxCell>
                <mxCell id="jj3hb7Asg8_VtjHweW8X-2" value="" style="group" parent="I9D4RKwkG700jf1nvvi3-1" vertex="1" connectable="0">
                    <mxGeometry x="456" y="386" width="35" height="35" as="geometry"/>
                </mxCell>
                <mxCell id="jj3hb7Asg8_VtjHweW8X-1" value="" style="whiteSpace=wrap;html=1;aspect=fixed;fillColor=#B3B3B3;strokeWidth=0;" parent="jj3hb7Asg8_VtjHweW8X-2" vertex="1">
                    <mxGeometry width="35" height="35" as="geometry"/>
                </mxCell>
                <mxCell id="jj3hb7Asg8_VtjHweW8X-0" value="" style="sketch=0;outlineConnect=0;fontColor=#232F3E;gradientColor=none;fillColor=#232F3D;strokeColor=none;dashed=0;verticalLabelPosition=bottom;verticalAlign=top;align=center;html=1;fontSize=12;fontStyle=0;aspect=fixed;pointerEvents=1;shape=mxgraph.aws4.office_building;strokeWidth=0;" parent="jj3hb7Asg8_VtjHweW8X-2" vertex="1">
                    <mxGeometry x="9.552083333333268" y="5.104166666666667" width="15.888541666666667" height="24.791666666666668" as="geometry"/>
                </mxCell>
                <mxCell id="jj3hb7Asg8_VtjHweW8X-3" value="Megaport &lt;br&gt;Equinix DA1&lt;br&gt;(Dallas)" style="whiteSpace=wrap;strokeWidth=1;fillColor=none;labelPosition=center;verticalLabelPosition=middle;align=left;verticalAlign=top;html=1;spacingLeft=40;spacingTop=0;horizontal=1;aspect=fixed;" parent="I9D4RKwkG700jf1nvvi3-1" vertex="1">
                    <mxGeometry x="456" y="386" width="155" height="155" as="geometry"/>
                </mxCell>
                <mxCell id="jj3hb7Asg8_VtjHweW8X-10" value="" style="shape=image;verticalLabelPosition=bottom;labelBackgroundColor=default;verticalAlign=top;aspect=fixed;imageAspect=0;image=data:image/png,iVBORw0KGgoAAAANSUhEUgAAAwgAAADNCAYAAAAcyFeNAAAgAElEQVR4nO3dfVxVVb4/8I8MHvGEhGgMMUREXCIjM4fIISMz45KXq6SMY5YPQ1SONmZlpkx5yxyvOr7MGsexYpw0JTNTMnN8IDSG4WddxsxIGVOGIUIzJEMiImT9/thzyJSH87DWXvuc83m/XutlM56z1nevs89xf/dae60eQggBIiIiIiIiAAG6AyAiIiIiIutggkBERERERO2YIBARERERUTsmCERERERE1I4JAhERERERtWOCQERERERE7ZggEBERERFROyYIRERERETUjgkCERERERG1Y4JARERERETtmCAQEREREVE7JghERERERNSOCQIREREREbVjgkBERERERO2YIBARERERUTsmCERERERE1I4JAhERERERtWOCQERERERE7ZggEBERERFRu0DdAfiMM2eAqiqgstL4s6oKOHkSqKsD6uuN/25oMF57+vSF7w8NNf4MCQH69zdKWBgQHg7ExgIxMUaJjQX69DHvuIiIiIjIr/QQQgjdQXidY8eA998HysuBgweBAweAmhrz2o+KAgYO/L4kJQH/8R/mtU9EREREPosJgjM+/BAoKgJKSoDSUuDECd0RXSg8HBg61CjDhgHXX687IiIiIiLyQkwQOvLNN8D27UbZsQOordUdkesiIoD0dKOMGgX07q07IiIiIiLyAkwQHM6eBTZuBPLzgV27gJYW3RHJY7MBaWnAuHHA+PFAz566IyIiIiIii2KC8M47wIsvAlu3As3NuqNRLyjIGFHIyQFuv113NERERERkMf6ZIJw5A6xYAaxeDRw9qjsafWJjjURh6lSgb1/d0RARERGRBfhXgvDJJ8DSpcDatf4xWuAsmw2YNAl45BHg6qt1R0NEREREGvlHgvDee8DChcC2bUBbm+5oDFdeCdxxB/Dmm8Cnn+qO5nsZGcATTwA33qg7EiIiIiLSwLcThA8+AObPBwoKdEfyQzffDGRnGwlCQQHw8svAvn26o/qhjAyj77hcKhEREZFf8c0E4fhxY7rMhg26I/mhiy4Cxo4FJk829ioICDBWTyosBNasAbZssd7Up6wsYNky4LLLdEdCRERERCbwvQRh7lxg+XLrXWjHxgITJxpz/WNjL/z7f/zDeDbilVesNeUIMJ5RmDkTWLxYdyREREREpJjvJAivvgrMmmW9Tc169DBGCyZPNkYPgoM7f21Dg7EXw5o1xq7NVhMRASxZYiQ6REREROSTvD9B+PJLYMIEY8djq+nTB/j5z43k4OabjWShO21twJ49RpLwxhtAU5P6OF2VlgasWwdcconuSIiIiIhIMu9OEH7/eyA3F2hs1B3JhWJigHvvNaYURUe7/v5jx4wpR3/+s/WmHAHGSMiCBcBDD+mOhIiIiIgk8s4E4dtvjVV2Cgt1R9K5Bx4wHu61292vo7HReNj6pZfkxSXb8OHG8rG9e+uOhIiIiIgkCNAdgMvefBOIirJ2cgAACQmeJQeAcZd+wAA58ahSVGR8Hlu26I6EiIiIiCTwrgThoYeAzEygrk53JHSu+npgzBhg+nTdkRARERGRh7wjQRDCeMj3+ed1R0JdWbkS+NnPjL0diIiIiMgrWT9B+PvfgchIay77SRfat8+YcvTee7ojISIiIiI3WDtBeO01ICUFOHFCdyTkihMngNRUYP163ZEQERERkYusmyAsXgyMHw+0tOiOhNzR0gLccw/w29/qjoSIiIiIXGDNBOFXvwLmzNEdBcnwxBPAfffpjoKIiIiInBSoO4AL3H03kJ+vOwqSKS/P2BGaU46IiIiILM9aIwh33snkwFfl5wOjR+uOgoiIiIi6YZ0EYfRooKBAdxSk0tatwB136I6CiIiIiLpgjQRh7Fjj4pF8344dHEkgIiIisjD9CcLkycDmzbqjIDNt3Wo8a0JERERElqM3QXjoIWDtWq0hkCb5+cD06bqjICIiIqLz6EsQnnsOeP55bc2TBaxcCfzud7qjICIiIqJz6EkQdu4EHnlES9NkMbNnA2+/rTsKIiIiIvo38xOEL74AxowB2tpMb5osatw44LPPdEdBRERERNCRICQlGZtmETk0NQFDhuiOgoiIiIhgdoJw++1AdbWpTZKXqKkBbrtNdxREREREfs+8BOHJJ4HCQtOaIy9UVAQ8/rjuKIiIiIj8mjkJwuHDwIIFpjRFXm7JEuDDD3VHQUREROS3zEkQRowwpRnyEenpuiMgIiIi8lvqE4Sf/xyorVXeDPmQEyeAO+/UHQURERGRX1KbIPzlL8CmTUqbIB9VUAC8+abuKIiIiIj8jtoEYdIkpdWTj8vO1h0BERERkd9RlyBMnAjU1SmrnvxAfT3wi1/ojoKIiIjIr6hJEI4dA9atU1K1VwgMBKKi5NQVEQEEmL+fnWVs3Ah8/LHuKIiIiIj8RqCSWkeOVFKtVwgMBCZPlrcz8JAhwF13Aa++CrS1yanT24waZSSdRERERJLdKXlhlC1btkitT4ceQgghtcY//QnIyZFapddwJAe/+Q1wxRXy6v3HP4BnnvHvJGHlSuBXv9IdBREREfmYHj16SK2vsrISV8i8DtRAfoLQty9w+rTUKr2CquTAwd+ThJAQ4KuvdEdBREREPoYJwoXkTm5/+GEmB6pOiKuuAp580phu5I/PJDQ0ANOn646CiIiIyOfJHUHo1QtoaZFWnVcICDCWc503T11ycC5/HkkIDAS++05rCO+++67pbUZFReHKK680vd2ufPLJJ6jVsAHiLbfcYnqbRETk2ziCcCF5Dyk/8IB/Jgd33aV25OB8jpEEIYwkQfIMMUtrbQXuvdd4zkWTYcOGmd5mcHAwzpw5Y3q7XRk8eDAaGxtNb1f2jEgiIiK6kLy5KqtXS6vKKziSgyefBOLizG3bkSSMGQNIznotb+1a3RGYrrGxEX/72990h9Hu2LFjWpIDIiIiMoecBGH6dOPurr84Nzm46io9MSQkGNOa/C1JaG0F7rtPdxSme/DBB3WH0C6bO1wTERH5NDnPIPjTswdWSA7OdfAgMH8+sHmz/0w3stmAb7/V0rTseYqusMr0GvYBERH5Ej6DcCHPRxCefZbJgU4DB/rfSEJLC7B4se4oTDfdAqs4/fGPf9QdAhERESnm+QjCJZcAdXWSwrEwKyYH5/K3kYTQUODLL01vVufdc7vdjq+//lpb+wBw2WWXoaamRlv7HEEgIiLZOIJwIc9GED7+mMmBVfjbSMLp08Df/647ClM1NTVhz549WmPQmRwQERGROTxLEHJyJIVhYd6QHDj4W5Jw//26IzDdjBkztLU9ceJEbW0TERGReTybYuTrF6HelBycy5+mG5l8fDqnGDnommbTq1cvtGh+3ohTjIiISDZOMbqQ+yMIv/2txDAsyFuTA8C/RhKefFJ3BKa7T8Myr3/961+1JwdERERkDvdHEH78Y+DkScnhWESPHsAvfgE89ZTa5EAItRfw/jCSEBYGnDplWnNWGEEICgrCN998Y2qb119/PQ4cOGBqmx3hCAIREcnGEYQLuT+C4MvJwZgx6kcOPv8ceOEFoL5eXRv+MJKgsv8sqrm5GTt37jS1TSskB0RERN5g27ZtukPwWKBb73r8cclhWIQjOZg3DxgwQF07n38O/O53wPr1QE0N8Mgjxp1wFRxJQksL8NZbatrQ7bHHjP70I4888gg+/vhjU9p6+umnTWnHG3z33XeoqKjA0aNHcfToUdTW1qKpqQmNjY1oamoCAAQHByMkJAT9+/dHTEwMYmNjMWjQIFx88cWao5fr2LFjOHToECoqKlBbW4uGhgY0NjaipaUFISEh7f2QkJCA+Ph4JCYmok+fPrrDNs3Zs2dx9OhRVFZWorq6GnV1dTh58iQaGhrQ3NyM5ubm9tcGBwfDbre3nzfh4eGIjIxEdHQ0YmJi0Lt3b41HYo5PP/0UFRUVOHToEKqqqn5wPgUEBCA0NBRhYWGIiopCTEwMBg4c6PV3aLvyySefoLKyEpWVlaiqqmr/nWlsbERrayuCg4MRFBSE4OBghIeHIzY2FrGxsYiLi0Pfvn11h6/V559/3v7dq62tRV1dHerr69HY2IicnBzcfvvtymNYvnw5ioqKXHrPli1bFEXjHvemGPXr53t3bs9NDgYOVNeOIzn44x+BpiagTx9gxgy1SQIAlJUZU6befltdG7qYOM3IClOMHMyabtOvXz/UW+T7rmOK0c6dO7F3717s3bsXZWVlaG1tdaue2NhYDB8+HCNGjEBWVhZ+9KMfSY5UrVOnTmHTpk3Ytm0b9u7di8bGRpfeHxAQgOTkZKSlpWHUqFH46U9/2uXrZX7WZnxvP/jgAxQXF6O0tBQHDx7E0aNH3T5XzhcTE4PExEQkJSVh2LBhSE1NVXZMZvb722+/jW3btmHXrl2orKx0uf6wsDCkpqYiPT0dWVlZ6Nevn7uhard7927s3bsXJSUlKCsra7/h4I64uDikpKQgJSUFI0eOxGWXXSYx0u7p+O6+9dZb2LhxI4qLi1FdXd3p6+bNm9fhTS8r/NtuuSm0wh3GjHbfKT16CDF2rBAffuhWdzjtxAkhHn1UCLv9h+336SPEb34jxKlTatt//30h/uu/9Pe3imISAJYpU6ZMUX68DQ0N2o/z3GKWkpISMWnSJBESEqLkOIKCgsS4ceNEUVGRacfkrpKSEpGZmSkCAwOl9sHAgQPF2rVrO2wzOjraK86bHTt2iOzsbNG/f39TvwdBQUFi/PjxYvPmzVKPp6ioSHm/19fXi6eeekpERkZKbSsgIEBkZGSIHTt2SO0TlQoLC0V2drYICwtTer4MGTJELF26VNTV1Sk/ptTUVFO/u4sWLXLpXJo3b16H9Zj5/XX3WM3mekTr1um/GJRdrrpKX3LgKGYmCXFx+vtcdnnxRbX99m+6f0DOLTabTfnxjhw5UvtxmvkDun37djFkyBBTjykpKUls3bpV+bG56siRIyI9PV358SckJIjCwsIftG3lBKGtrU0sWbJExMTEaP8+ABARERFi/vz5oq2tzeNjU50g5ObmiqCgIOV9kpycbOnke/Xq1WLAgAGmnys2m01kZ2eL8vJyZcdmVoKwcuVKtxJzJgjOcz2igQP1XwzKLv/93wq69hzdJQeOYlaSkJGhv89ll4QEtX32b7p/QM4vsu8gni8gIED7MZrxA1pYWCgGDRqk9diGDRsmjh49quwYXfHII49IHzHorsyYMaO9fasmCAsXLhShoaHavwcdlbCwMLF8+XKPjk9VgrB//34RFxdnep+MGzdOtLS0ePqxS5OXlyd95MTdkpmZqeT3RnWCUFtbK5KTk92ujwmC81yPCBa4GJRdRo9W0LX/duqUc8mBo5iRJIwerb/PVRQT6P4BOb/ExcUpO9YNGzZoPz7VP6AtLS1i3Lhx2o/LUWw2m1iwYIH043TWkSNHRHx8vLbjHzZsmBBCSL+I8tSuXbukJy2qSnJysjh58qRbxyk7QSgsLBR5eXnCZrNp64+wsDBRUFDg8TngiQMHDojBgwdrPzfOL4GBgWLOnDlSj1VlgrBp0yYRHBzsUX1MEJzHBAEKE4RTp4yLfWeTA0dRnST4aoIgYYi9O7p/QMz8UdFxx8/MYy0oKFA+99fdkpqaKvVYnbFx40ZTpn90V5KTk4XdbrfMeTN16lTtfeJqCQkJEdu3b3f5WGUnCAMHDtTeF44ye/Zsj84Dd82fP9/00ThXS0JCgrRpR6oShCVLlkipjwmC81yLaPly/ReBKoqKBMGRHPTp415MffoI8dRTQnz1lfzYfDVBWLRIfl+dR/cPSEdlwoQJfnOsssyaNUv7sXRXoqKiRGVlpbRj7srKlSu1H68Vz5uUlBTtsbtbAgICxIYNG1w6XtkJgtVKVlaW2+eCO0aMGKH9mJ0tNptNvCjhWT4VCcLChQul1ccEwXmuRZSYqP8iUEWRnSB4mhw4St++QjzzjPwkwVcThPh4uf3UAd0/IJ39sMv24IMPaj8uVT+gGRkZ2o/D2RISEiL2798v5bg7s2LFCu3HacXzJjExUXvcnpbAwECxb98+p4/Z1xMEAGLUqFFunQ+uaG5u1jpVz5Mya9Ysj45ddoIgewSPCYLzXIsoIED/RaCKIjNBkJUcOIqKJMFXEwQTvmC6f0A6K/n5+VKP09N5nlb9ATV7hSIZJSQkRBw5ckTCp3qh7du3az8+K543Vpwv7m4JDQ11+rj9IUEA1I4kNDU1iaioKO3H6EnJyclx+/hlJwiyCxME5wXAFW1tLr3c75w5AyxbBjz/vPHfMnz55fd1fvONnDrJ5zzxxBPS6vrHP/7h8iZY3uCmm27Cvn37dIfhsoaGBgwZMgRnz56VXndWVpb0Or3dXXfdhf379+sOQ5rTp0/j1ltv1R2GpWzatAlz585VUnd8fDxqamqU1G2WvLw8TJ8+XXcYpJnzCcJnnykMw0dUVclNDhwcScKJE3Lr9UXHjumOQAt3diHtTE5OjrS6rGL06NEoLS3VHYbb6uvrkZCQILXO6667zqPdWn3RmjVrsGHDBt1hSLd3714cP35cdxiWsmjRIvztb3+TWufVV1/t9cmBw8qVK7F48WLdYZBGzicI+fkKw/ARp07JTw4cvvwS+OorNXX7knXrdEegzc9//nMp9ZSUlEipxyrmzp2LrVu36g7DY0ePHsXYsWOl1PXYY4/h4MGDUuryJdOmTdMdgjJjxozRHYLlZGZmSqtr9OjRqKiokFafFeTm5uL//u//dIdBmjifIGzcqDAMIkk2bdIdgTYFBQUe1/Hcc89JiMQ63nvvPSxatEh3GNJs3rwZb731lsf1LF++XEI0vuXuu+/26REVb5xep1pdXR1+8YtfeFzPH/7wB5+4CXG+trY2jBw5UncYpInzCQLvNpE38LE7OK5obW3FmjVrPKpjyZIlkqKxhoyMDN0hSDdlyhSP3n/bbbehtbVVUjS+w4ypRbGxsRgxYgQyMzMxfvx4ZGZmIjU1FbGxsQgMDFTe/ieffKK8DW+zceNGj5/vmTVrlqRorKeurg533nmn7jBIA+cThJYWhWEQSeLnFz7z5s3z6P21tbWSItFv4sSJqKur0x2GdPX19bjvvvvceu/XX3+NoqIiyRF5v8WLF6NN0SIcqampWLt2LU6fPo1jx45h9+7d2LJlC1599VVs2bIF7777Lo4dO4aGhgZs374d6enpSuIAjHnldKHU1FS333v77bejublZYjTWU1BQgI8//lh3GGQy9bcsiMg01dXVbr/3rrvukhiJfusUPo+SkpKC9PR0DBo0CLGxsQgODkZAQADq6+tx8uRJHDp0CLt27cKuXbuU3K1fvXo1XnrpJZffZ8Z0geHDhyMjIwODBw9GVFQUAgMD0draipMnT6KiogJ79+7F1q1bcfr0aeWxOEvFlCubzYa8vDxMnDjRqdf37t0bd9xxB+644w6sWbPG45Gijmzfvh3PPvus9HrdZbfbkZ6ejrS0NCQmJiI8PBw2mw0tLS2ora3FwYMHsX37dhQWFiod9SotLcWZM2fQp08fl9537NgxFBYWKorKEBMTg8zMTAwZMgRxcXHo378/AKCpqQk1NTUoLy/Hjh07UFRUpLSPMjMzOQLlb5xeEBUWWONeVZG1D8KePWrj/OADOXH68j4IgJw+6gSgf63k7oq7GwHZbDbtsXdXnDV06FAl7WdkZIjy8nKn4zhx4oSYMmWKklgyMzNd/oxVfjapqaniwIEDTseyaNEiYbfbLXHeqGhz48aNLn8+55o5c6b0mAIDA7ts06x9EAICAsS0adNEY2OjU31RWVkpsrKylMY0bNgwlz8jlZvpRUdHu7QTdm1trcjJyVHaR4WFhd3GwX0Q3C9W49wIwj//6dTLiCzh44+Ba67RHYU227Ztc/k977zzDlp8ZBrhd999J30lJrvdjlWrVjl9N9jhxz/+Mf785z9j+PDhmDJlitRpLK4+FPnQQw9Ja/t8ubm5+O1vf+vSex5//HGMHz8eaWlpOHLkiKLIunf48GHpdaampnq8qtizzz4rfWTDCs+ehIaGYtOmTbjtttucfs8VV1yB119/HX/6058wbdo0Jb9Ve/fuden1Z8+eRXl5ufQ4AGPFqTfeeMOl91x66aV46aWXMH78eIwbNw719fXS45o6dSpHEZw0YMAAJCcn6w7DM06lEQUF+u8KqywcQfCtInlX4XMB+u8yOFPy8vJcOq6BAwdqj9mZ4oy0tDSpbdrtdlFWVubO6fID8+fPl94f8+fPd7r9kJAQJZ/JggULPO6buLg4befNvHnzpLdXVVXlcZ8IIURkZKSpfaF6BCE0NFRUV1d71Ce7du1SNtrpyvcpPT1dSQzZ2dke9Y8QQtTV1Ynw8HAl8TU3N3fZtq4RhPj4eJGTkyNWrlwpCgsLRVlZmTh69Kg4dOiQKCsrE4WFhSI/P1/U1dV1GLfseFatWuXx56ibc//iLlqk/6JPZWGC4Fvlqafk9FMHdPzwuVOioqJ88rh0HEtBQYE7p0qHkpOTpcYWFhbmdNsqPo9x48ZJ6ZempiYRFBSk5bxRcUEjS0ZGhqmxqUwQAgICXJqC1pWXX35ZSYwRERFOx6Ci/REjRkjpHyGEqK6uVpJIpaWlddmu2QlCVlaWlBs4suOqrKz0OCbdnFvFSOPwL5HLeL6ipqYG3377rVOvffLJJxVHY55nnnlGan1jxozB6NGjpdUne+pTfX29U5/zY489JrVdAAgLC8Nrr70mpa7evXt7vAKXu2RvGBcRESGtrujoaGl16TZr1ixcd911UuqaPHmyko3fTpw44dTrXn31Velth4SEYPfu3dLqu+yyy7Bw4UJp9TmofijbWTExMSguLsbrr7+On/70p7rD8UlMEMj38HwF4PzOqStWrFAciXlkLuMYEBDg8jzg7vTs2RNDhw6VWqczu/+qWNFJ9gZ0c+fORVhYmNQ6nSF7NSWZn6+vLDvcv39/LF68WGqdb7zxBoKCgqTWCQDr16/v9jULFiyQ3q6KOh999FHExMRIrbOtrQ3/1PxcanJyMv75z3/i5ptv1hqHr3MuQXAyqyayhJMndUfgErvdrqTeHTt2dPuaU6dOKVlucsCAAdLrdIazdwCdIftC3kH2xfomJ3YPl9kvgHHOursXQ1fmzJkjvU6zDRs2TFpdvrL7sarRofvvv196nc8//3y3rzl06JDUNoODg/HrX/9aap0OKpbwnTFjhvQ6nZWYmIj33ntPW/v+xLkEoaFBcRhEEilYvUGlnJwcJfW2tbXh97//fZevmTBhgvR2Q0JClNwN644zd/5coWJ4HgAuv/xy2Gw2afU1aPh9HjdunJJ6VUyF6s7p06ellunTp0uJ6+mnn5ae2OkQEBCg7OL3ueeek15nWVlZl3//+eefS28zOztbep0Oo0ePlvp7AwC7du2SWp+zgoKC8NFHH2lp2y859aRCUJD+B09VFj6k7HtFEUD+Q1aNjY3KHuzq7qG7gIAA6W3OmTNHWV91RfYDwJ6uttKV6OhoqbHu3bu307by8/Olfw7drWTiiZiYGFPPG6spLi4WI0aMUPL96a4vVDykPHToUKX9pWIvgq7k5uZ63fk5ZswY02JW+ZDy0qVLlfWR7Fh94SFl5/ZB8PFtxIl0uuiii7BhwwZERkZKr/vEiROd7hC6fv16qevyO/zv//6v9DqdsX//fqn15ebmIi4uTmqdDrLXcV+5ciVuueWWDv/OmSlIrurVq5f0Oh0mTJigbPTGij7++GPs378f+/btw44dO1BZWak7JKlyc3OV1j979mxMmjRJap1ffPEFLrnkkg7/bsOGDVLbCgx07jLMEwsXLsTmzZul1nn8+HFceumlUuvsSv/+/fHoo4+a1h4B6s9MIurWpZdeioiICCVTCrKysrBz584L/n8V84JVzdt3huxNoFQ82KtKV0P+paWlUtsKDg6WWt/5cnJyfCpB+Ne//oXq6mrU1NSguroa1dXVqKqqQlVVFSorK9Hs4zfg7rjjDqX1T5w4UXqCsHHjxk6nislO4AYNGiS1vo5cddVV0uvMz8839YJ91qxZprVFBiYIRBaRm5ur5OGvzpalU3Gn0psuqn1JVw+ay046Bw8eLLW+811xxRVK61dBCIGDBw/iwIEDOHjwII4cOYKjR4+isrLSZ3Yo9yfbt2+X9ixJd7KyskxpR7Zdu3aZmiA8/vjjprVFBucShKAgTjMiUuzXv/41Zs6cKX3aT1tbG373u9/94AHQBx54QGobgDEEfPnll0uv1xnvvvuulnb90ZAhQ3SHoN0XX3yBkpISFBcXo6SkBAcPHmQi0AEzps8AQGhoqNTV2Lp7UFmmjIwMU9qR3Ueyp3R2RebeIuQ851YxCglRHAaRRIqnQKg0atQoJfUuXbr0B/9bxZ1+nUPAxcXF2tr2N7GxsbpD0OLw4cN4+umncd111yE8PBxjxozB8uXLUVZWxuSgE2adK7Kn6ZzsZKnsb775Rmo7AHDNNddIr7MjycnJUuurq6uTWl9XVGyKR91jgkC+R8NmS7Js2bJFSb0nT57EF198AQD46KOP0NTUJLX+gIAArUPAsnfD9UZmbV6k4mF6K3vzzTdx6623YsCAAXjqqad4rrnAjPn1gPyL385UVFSY0o4KZvWRCs5sBknyOZcgcHiHvEl4uO4IPKJq5Zzx48cDULO50IgRI6TX6Qpf2XHWE2atfqP6IWWreO+993DjjTciMzMTe/fu1R2OV4qOjjalHbNGKrx5XwqzPgsVzBploR9yLkGIj1ccBpFEXn6+LlmyREm9RUVF2LNnj5LdWWUvoeeqei/bHE8Fs4b8GxsblbcREODcP02qPPzww0hJScH777+vNQ5vZ9Zok1ntqNh13iycx0+uYoLQqxcga2nGyy5T11fx8UAn6zK7bOhQ47h9lZefr3feeSeCgoKU1J2ZmSm9zsjISFx00UXS63WFGRetVmfWKIqvjyQBYd4AAB/TSURBVNbcdNNNWL58uZI9QvxNaGioKe2EmzRqLHtqppnM+izIdziXICQkKA5Dk169gJwc4N9TLzwWEwM8+aT8C9T4eKNeWXcAxo83jttXkwQvTxAASF/X26GhoUF6nSr2U3CV7jvOVqDis+3I0aNHlbeh6+L82muvlb5vhD/ztT0evPl3hg/Sk6ucO9sHDlQchgaO5GDOHCAqSk6dP/oRcNddcpMER3Jw111G/TJERRnH7atJgg+cry+88ILuEJwSGBioZMlUV/Xv3193CNqZdYewpKTElHbMdsMNN6C8vFx3GD6ls9WAZDNrVCvMixfAMOuzIN/hXILghRvXdElFcuAgM0lQkRw4+HKS4CMPNKnekEoGVcuyusqsKQZWFmLSanO+uIrPAw88YOra9/7CrAv3mpoaU9rx5nn8ZvUR+Q7vHS9zV2AgcO+9apIDBxlJgsrkwMGXkwQf8OKLL+oOoVtvvPGG7hAAADExMbpD0K6zEQTZyZM3z8PuyKeffmqp71pCQgKmTp2KrVu3ev2mdIcOHTKlHbNGfrx5JSAzNzYj32DONodWERgITJ6sNjlwcCQJAPDMM8CRI86/14zkwMGRJABAXh7w7bdq2yOn/fSnP5W++6VMVtowKzk5GatWrdIdhlZRnfympaSkoKCgwORo3Pf000+b2l5aWpqp7QGAzWZDbGws4uPjkZCQgISEBMTHxyMxMREXX3xx++tKS0uVrDpmFrMu3M3aKPHSSy+VXuepU6fQr18/6fWeT/bUQLvdLrU+sh7nEwSbDfDmh1wcycFvfmOsNmQGd5KEmBgjRjOSAwdfShICfSvnnTFjBubPn687jA4tWrRIdwjtUlNTpde5bdu2Ti+6rei6667r8P8fNWqU9AThhRdeUPbsyerVq5XU25HPPvtM+eZXNpsNQ4cORWpqKpKTkxEfH48rr7zS6fd6M7Nubsh+cN6s6XoAsHXrVvzyl79U3o7sKUYJvrp4DX1POCspSQjAO0tgoBD33itEZaXThytVa6sQr7wiRHx813HGxAjx0ktCtLToifPTT4WYPl2Inj31f2bulsREpV0EQHrR0aanxWazWa6vzP5cvEV9fb30vomLi1MWr5nnTUpKirLvyNChQ0V+fr5o8eD3fPbs2aae10VFRV75PZIdc0pKimltjRw50iv7aNasWR22k5qaynMIEJW6rjclcv4ZhHHjnH6ppZw7cqDrYWtnnklwjBxMngz07GlufA6OkYRJk7z3TnxWlu4IpBs2bJjuEC4wXtbSwKRc3759pdepaqnTu+++W0m9nVGxpGloaCjy8/Px17/+FXfddRd6evB7btbmdyp98MEHukNwWVeLL8heLcyMVcGEENLrHDNmjPQ6yWKcTiVqavTfHXa16B45OJ9jJCE21lojB+errDT6LTBQ/2foajl6VGnXQPJdBme+gnV1dUraVRmzjr4KCQmR2lZ1dbVTx+kNAgMDpX8Wo0aNkh5nQECAqeeN7HYCAwPFoUOHpPXHsGHDTP0OqRhByMjIkNYfHXn++eelx9zVd3/cuHGmfiYyzJw507SYOYJgFP8aQfjJT5x+qSVYYeTgfI6RhNxcY8QAsMbIwfmuuOL7mLxtJMHJub3epF+/foiMjNQdRrsBAwboDqFDw4cPl1rfggULpNanU1JSkvQ6t27dimPHjkmr7+abbzZ1gzQVK3Dl5ubi6quvllafL+zLsGvXLqX1L1++XHqdl3XxnOKMGTOkt6d635u1a9cqrZ98lGvpRID+O8TOFKuNHJyvpcUYMbjpJmuNHJzPG0cSFIPkuwzOfgVXrVqlpG13SmFhoSX7qqysTGpbYWFhTh2nN9i6dauSzyMmJkZKfLm5uUrP2Y5MmTLF1PPTHWZ/h1SMIAAQu3btkt43qvooMDDQ9Dajo6OV9c+JEyekxztw4MBO2+MIglGOKp7NYAbXej4xUf8FYHfF6smBQ0uLELt3Wzc5cPCmJCE+Xnl3qPjH01kqpom4Wux2u6X7SnZ7vjTNSNU5kZqa6lFcS5cuVX7edmTgwIHavhvOMvs7pCpBiFf025yVlSU91q4eUHYIDw+X3m5ZWZmSPlLxIP6mTZs6bY8JgtrP00yubZSWk+PSy01nxWlFnenZExgxwjrTijrjTdONsrN1R6BUZmam7hCQbfE+lj39KcuHHnpXtclTcXExbrjhBpw5c8bl9953332YNWuWgqi6V11dLbU+2UvivvPOO1Lr0+nIkSNYv3691Dq/+uorbNq0SWqdADDHseR3F1T8DqpY+OGDDz5Q8iD+2LFjpdfpa464sveVVbmcUsACd4o7Kt4ycuCtvGEkoa1NeTdA8l0GV7+CKtr3pli7s2nTJultbt682aXjtqrVq1crPTdCQ0PFsmXLRGtra5dxtLa2ihUrVojIyEit563sB6ITEhKkfl6DBg0y/TukagQBgAgJCZHaPwMGDDC9f86lou3c3FypfRQVFSU9xu7Oc44gGOWee+4xJW6VegghBFzRo4dLLzdFQIBxh/vJJ60/cuDN/vlP4Le/BdasAVpbdUdzIRdPZXf0UHD+u/IVvOqqq7TdmRg8eDD+/ve/O/16XX3Vq1cvtEjc1DE4OBgHDx7EFZJ+W3bu3Cl1c66HHnrI6df27NkTrYq/u0FBQRgxYgQGDRqEiIgIBAcHo7GxETU1Ndi/fz+Ki4vR3NysNIbzdXTe9O7dW2ocdrsdX3/9tZS6PvnkE8R3tiS2h7r6Du3Zs0f6w/7nSkxMxEcffeRxPWPHjsXmzZslRPRDCQkJOHz4sFOvveaaa3Do0CGp7QcEBGDz5s0YPXq0x3XdfvvtKCwslBDVDxUVFeHWW2/t9O9vueUW6Ttbu3qZ6g7Z/16Fh4fj888/l1qn6VxOKQYO1H+n+NwSECDE3XcrX95SnDplyh1qj7S1GXGqZNWRBMl37zoDyXcZXP0Kbtu2TUkMzpT9+/d7RV9lZ2dLbzc0NFTKg5Zz5syRGper894nTZqk7fzRWToSERGh5fx0RlxcnKl94aByBMFREhMTxenTp93um8zMTGWxbdiwwek49u7dqyQGm80mVq9e7Xb/CCHE8OHDlcQWGhrabdscQfi+vPzyy0613djYKIqLixUfoetc7/l16/RfDDqKIzmoqFDQNef49FMhHntMiLfesm6S0NZmxPfYY0a8KlkxSXjxRbXH/G8qfkRcZbfblcTRVXFneoDOvlK1nn5OTo5bDy4XFRWJpKQk6fHMmTPH5Vis8LC72aUjKvYYWLhwocufx/lGjhxpel84mJEgAMaFZl5enkv9UlJSIhISEpTFFBQU5PJn1b9/f2XxTJgwQdTX17sUz+bNm5VMK3KURYsWdRsDE4QflsTERJGdnS3mzZsnli5dKhYtWiSeeuop8eCDD4qRI0eKuLi49n+vrMa9iGCBC0Izk4Pp04Xo1UuIpCRrJgmO5CApyYhz+nRzkoRf/tI6S9+aRMUPiKumTZum7Mess+LO3FidfXXPPfco64uAgACRnp4uVqxYIcrKykRTU9MF7Tc1NYmSkhKxaNEikZiYqCQOm83m8mcihBAzZsww/fzRXTry1FNPKflM3L0TWFdXJ4YMGaKlLxzMShAcJS4uTsyfP1+8//77HX6PKioqxKpVq5Qkc+eXadOmufyZrV27VmlMQUFBYsqUKaKgoEDU1NRc0H5TU5MoKysTixYtkr4q1/nFmdEDIZggWP04XeFeRGFh/pccONq2WpJwbnLgiNGsJOHoUeNz0J0kmLhevVV+FLzhh0t3HDabzbT+CQkJETExMSI6Olr6js6dlRkzZrj1uQihZnqNlUtHDh48qKStwMBAMXPmTKdHmmpqakRubq5p501XzE4Qzi0BAQEiLCxMxMTEiPDwcFO/v87sfdAZldPBzi92u11ERESImJgYERoaqmyktKPyopOj9EwQrH2crnAvotmz9V0M9uihLzlwFKskCR0lB45iVpJQUaE/SZg1S+0xnsMqPwoqpqt0VoYOHeqVfaXiDrFViqcrwpSWlmo/BjOLmefouWXAgAFiwoQJIjc3VyxdulQsX75cLFmyROTm5orx48crW4nHnb4QQm+CoLN4kmxXVlZqj191SUxMdLo/mCBY+zhd4X5E0HQxGBSkNzlwFN1JQlfJgaOYmST07avvnDCRVX4UVN397Ki4u1mYFfpKxwWYGcXV+dsdUfEwt1VLZ8y6a2+l0hV/TBBkLL96//33az8OVSUwMLDD6V+d8dYEwQq/BVbjfkTh4XouBi++WOLhd+DECSEefLDr5MBRdCUJziQHjmJWknD55XrOBxOnFwlhjYteh7CwMOU/WOHh4V7dVy0tLSIoKEh5P5lZhgwZ4vZncj4z5rxboXRm9uzZ2mOzSl8I4Z8Jgqx9Tnz1ZsTy5ctd6gdvTRDGjRunva+txv2IFizwvQThxAkhHn3UGKVwNh4dScK2bc4lB45iRpKgK0F44gl1x9QBK/0ozJ8/X/kP1pIlS7y+r/Lz85X3k1lF9mZTQghlD1FbqXRFd2xW6gt/SxAyMzNlfpVEaGio9mOSWcaPH+9yH3hrgnDo0CHt/W01nkUEH0oQHMmB3e56TGYmCbt3C3HDDa7HqDpJ0JUgmMxqPwoqf6wCAgIsF5u7cnNzlfaVWaWwsNCjz6QzqldA0V26kpWVpT0+q/SFPyUI0dHRMr9CQgghDhw44DMjlu4+e+atCYIQ5i5sofM4neVZREOG+EaC4Ely4ChmJAm7dwtx003ux+hIEo4flx+bjgRh8GD5x9ENq/0ojBgxQtmPVXp6uk/11dSpU5X1lRnFmTXIPaF6/X1ny8iRI0VwcLCp542OvUV0la74S4IQHBws6urqZH11fmDHjh3aLzQ9LcnJyW4fvzcnCDk5OVr73Wo8i6i83PsTBBnJgaM4kgQVPE0OHKVXLyEeftg4bpl0JAhlZXKPwQlW+1FoaGhQEhMAlx5M84a+EsJ79wBwZ0M0dyxYsEDrRmozZ84UQggRGRlp6nmzevVq7Z+xWaUr/pAg2O12sW/fPinfl84UFhZKT3LNKqmpqR4duzcnCELofVjZajyPqH9/700QZCYHjpKUZFzMyyQrOXAUu904bplJgtkJgpObtshmxR8FFTtnRkVF+WRfCSHEsmXLTF0/3NOyYMECKcftrPLyctMfXo6Ojhbbtm1rjyE6Otr080bl5npWKl3x9QTBbreL0tJSj74fzjpy5Ij081h1yc7O9vi4vT1B2LRpk7b+txrPI1q2zHsThDlz5CYHjnLTTUJ8+KGcGD/8UG5y4CiOJEEWsxMExdMtOmPFH4W8vDzpMTm7KY639ZXD3r17pd+lll2Cg4PFxo0bpR2zqzZs2CDi4+OVHmNoaGiHCVB4eLiW88Yq06xUlq6oSBBiYmK0HzMAERERIcrLy13+HngqIyND+7F3V4KDg6UsnSyE9ycIQggxa9YsLZ+D1ciJyGbzzgRB5VKtL7wgJ8YXXlAXo90uJ0YhzE0QbDZ5cbvIqj8KMqeFeLKr6Lms2lfnsupd49TUVHHy5Enpx+uObdu2iczMTKnnWEpKinj55Zc7bVPmg56uPmw/adIk7Z+/oyQnJ0u/WOmKigThyJEj2vcJSE1NFW0aNzbNy8szZVlqd8rw4cNFbW2ttGP1hQRBCCHmzZtn+mdhNXIimjbNOxOEiy9WF+ezz8qJ8dln1fanLGYmCDk58uJ2kVV/FMaPHy8tnjFjxkiJyap9db6ioiIxaNAgJfG6WiIjI8XatWuVHKenGhsbxcaNG8W0adNEUlKSS3N1o6OjRVZWlsjLy3Nq4z2ZfRoREeHysa5cuVLrajTBwcFi4cKFSvqjKyoSBId169aZfpFst9vF0qVLXf78VWhpaRHTpk3T+ozPuSUuLk7JCKWvJAhCGDdHzBxpthp5EQUGMkE4tzBBUFMk3d12l5V/FHw1HrN+QAsKCkRSUpKSuLsrUVFRLm9IZAW1tbWipKREbN26VWzYsEHk5eWJVatWifz8fLFt2zZRVlYmGhsbXa5XZt+OGDHCrWOrrq4WmZmZpp4HdrtdPPjggxf0WWxsrCnfIZUJghDGRfKUKVNMeQZowoQJlhmFO1d1dbWYOXOmtoeYk5KSxLp165Qdny8lCA6LFi0SERERyj8bq5EX0f33M0E4tzBBUFMkPETlCSv/KCQkJHgcS2xsrLR4rNxXXSktLRU5OTnKV7Ow2WwiIyNDFBQUmHJc3kRmP8+bN8+jWEpLS0VWVpbSi9rBgweLZcuWdbpy2LJly0z5DqlOEBwqKirE1KlTpV8kBwUFiUmTJml51sBVra2tYsWKFWLo0KHKE6b+/fuL7OxsUVxcrPy4fDFBcCgoKBBTpkxRMqrg6b5DKvQQQgjI0qsX0NIirboOXXwxcPq0nLpCQ4GvvpJT1/mefRaYOdPzepYvBx5+2PN6OiPr44+JAf71Lzl1dSYwEPjuO7VtdOPdd9+VXuctt9wirS5P40tJSUHPnj0tEUtHZPaVM3bv3o3CwkKUlJRg//79aG5u9qi++Ph4DB06FGlpaRg1ahR69+4tKdLu/Uvy9/Pyyy+XWp/D2bNnERgYKK2+0tJS/OxnP/O4nlOnTmHTpk0oKChAaWkpGhoa3K4rKioKKSkpSEtLw4gRI5zqS1nfp66+Q3v27MHw4cOltOPQ1SWGEAJ5eXnYvn07CgsL0djY6HL9ISEhSE1NRWZmJiZMmGDqd0qW48ePo6CgAMXFxSgtLUV1dbVH9QUFBSEpKan9HLvtttskRdq948eP48iRI1LrNPt33xmfffYZysvLUVVVhZqaGtTU1KC+vh4NDQ1oaWlBU1NT+2vtdjtsNhsA43wNCQlB//79ERkZiZiYGMTFxSEhIcFy567cBOHhh40LWpWYIMjlTQnCtGnAH/6gtg2iTgghsH//flRWVqKyshJVVVU4efIkmpub0dTUhIaGBtjtdgQGBsJutyMiIgIRERGIiYlBQkICEhMT0bdvX23x9+jRQ2p9Mv/pONfDDz+M5RL/HVEV54cffojy8nIcOXIEtbW1qK2tRVNTU/uFgd1uR3BwMEJDQxEVFYXo6GjEx8dj0KBB6Nevn5KYPGV2gnC+9957DxUVFSgvL0d1dTUaGhrQ2NiIlpYWhISE/KA/4+LiMHjwYFx77bVS47WC48eP49ChQ+2/M9XV1WhsbGy/+GxubkZwcDCCg4Nhs9naf2diY2MRGxuL66+/XvchkA+QmyAAQN++8i7gO8IEQS5vSRBCQtR9VkR+QHaCsHbtWkycOFFqnQDQr18/1NfXS6tPVYLgi3QnCERkHQHSa1y6VHqVRFi0SHcERHSOhQsXSq/z3XfflZocBAcHS6uLiMifyE8Q7r0XiI+XXi35sdhY4Fe/0h0FkVcLDQ2VWl9FRYX0u8PZ2dlS6xs1apTU+oiI/IX8BAEAtm9XUi35qa1bdUdA5PXS0tKk1zl06FBpdc2dOxeVlZXS6gOAJUuWSK2PiMhfqEkQrrwSmDBBSdXkZ8aNA665RncURF7viSeekF5naWkpHn30UY/reeWVV7BI8jRCm82Gn/zkJ1LrJCLyF2oSBABYvx7o319Z9eQHwsKA117THQWRT1C12suyZcswduxYfP755269/3/+538wadIkyVEB99xzj/Q6iYj8hboEAQDWrlVaPfm41at1R0DkUxITE5XUu3nzZkRHR2PixIl4++238V03+5V89tlneO6553DllVdi/vz5SmL605/+pKReIiJ/IG83mo7ccQeQlQVs2qS0GfJBo0YBo0frjoLIp7z44otISUlRUndLSwvWrVuHdevWITAwEPHx8YiLi0NYWBhsNhuam5tx4sQJVFRUeLwRVHcmcIorEZFH1CYIAPD668BPfgLU1ipvinxERATw5pu6oyDyOT/72c8QGxsr/WHg87W2tuLQoUM4dOiQ0nY6EhQUhPXr15veLhGRL1E7xcihsNCUZshH7NihOwIin1VQUKA7BKWWLVumOwQiIq9nToJw9dWAghU0yAfNng1cd53uKIh81rXXXoucnBzdYSiRnp6OX3HPFCIij5mTIADAM88AI0aY1hx5oeHDgcWLdUdB5PNeeuklZQ8s65KQkIC//OUvusMgIvIJ5iUIALB7NxAdbWqT5CWiooB33tEdBZHf+OijjxAVFaU7DCmioqJw+PBh3WEQEfkMcxMEACgrA+x205slC7PbgX37dEdB5HcqKioQHh6uOwyPJCQkKH/omojI35ifIFxyCbB5MxBgftNkURs3GitdEZGpLrroIlRVVSEhIUF3KG5JS0vD4cOH0bNnT92hEBH5FD1X6f/5nwBXmiAAWLIE+K//0h0Fkd/q3bs3Dh8+jDFjxugOxWk2mw0LFy7Ezp07dYdCROST9N3Gf+ghYMYM19/33XfAv/7lefvHjgEtLZ7X05mqKiNWT7S2yjnWrnzyied1VFcDTU2uv2/aNOCxxzxvn4g89sYbb2D16tUIDQ3VHUqXUlJScODAAcydO1d3KEREPkvvPJ/nngMmTXLtPc3NwPz5QHExIITrbba1GQ/DPv008O23rr/fWTt2ACtXAidPuvf+ujrj/ar3BHj6aWOfirY2198rBFBSYnwep0+79t4JE4A//MH1NolImV/+8peoq6vDgw8+iMBA9ftouiI2Nhb5+fn429/+hquvvlp3OEREPq2HEO5cZUs2dqzxXIKzevQAhg0DJk823hsc7Nz7GhqM+e5r1wJ//at7sbrikkuMC+FJk4DBg51/34EDRozr17ufYLjippuMGH/xC+Dii517z9dfA2+8YcRZVORasjZqFHdKJrK4zz77DEuXLkVeXh4aGxu1xTFgwADMnj0bkydP1haDv9izZw+GDx8utU4rXGIQkeuskSAAwOjRwNatrr3niiuMC9uJE4Err+z6tf/4h3Ex+8orwKefuh+nq3r2BNLTjWQmIwPo1avz17a0AG+/DaxZA2zf7vkUJVdERRn9OGkS0N0Di5WVwLp1Rpyurh6Sng5wrXIir3H27FmsXbsWa9euRXFxMdrcGW10UXh4OMaMGYMJEybg5ptvVt4eGZggEJGDdRIEALjzTqCgwLX3XHQRMGYMMGWKMapw/upIZ88aU4peftmo+5tv5MXrimuvNS6+774buPTSC//+xAkgP9+46D540Pz4ACAoyEjUpkwBbr8d+NGPfvj3bW3Au+8aMb7xBuDqXUWOHBB5ta+++go7duxAUVER9u3bh/LycikJQ3R0NJKSkpCcnIzhw4fjhhtukBAtueOrr76SWt/Fzo5KE5GlWCtBAIwL6Px81993883GBfi4cUBIiPH/ffkl8NprxsjB//t/cuN0R1iYMY1nyhTghhuMqVKAsTfEyy8DGzYAp07pjREAbrzR6Mvx442YAeDMGeD1142+dOf5jwkTjClTROQzvvnmG1RUVKCiogJVVVWora3FyZMn0dLSgtP/fi4pMDAQwcHBCAoKQkhICEJDQxEZGYnIyEjExsYiLi6OF5FERBZjvQQBAH71K2DVKtffd9llxoXtpEnGCkBr1hhTYWpr5cforh/9CEhLM2JMTwd27TIuunfsMEY7rOLSS4F77jHi7NXr++lZ7qyqlJMDvPSS/BiJiIiISDprJggAsHgxMGeO6+/r3duYqvTdd8YzDSpXKvJEQoKRIOzcCRw+rDuajvXqBfz3fxt/btni3lKmCxYAv/mN/NiIiIiISAnrJgiAMT1o0iS1+xWQGjYbsHq1MWWMiIiIiLyGtRMEAPj7343Vf06c0B0JOSsiwngg/MYbdUdCRERERC6yfoIAGA/EpqYam3KRtQ0ZYnxO56+AREREREReQe9Oys7q0cPY2GzGDN2RUFemTTNWi2JyQEREROS1vGME4VxvvmmsilNXpzsScggLA/LyjIfDiYiIiMireV+CABgrE2VkAIWFuiOh4cOBbduM1aOIiIiIyOt5xxSj8/XqBezeDTz/PBAcrDsa/xQcDCxfbuxSzeSAiIiIyGd45wjCub780tild8cO3ZH4j7Q0YwO6Sy7RHQkRERERSeadIwjn6tsX+MtfgPx8IDJSdzS+LSLC2FF5504mB0REREQ+yvtHEM43d64x9aW5WXckvsNmA2bONHa3JiIiIiKf5nsJAgAcPw488giwYYPuSLxfVhawbBlw2WW6IyEiIiIiE3j/FKOOXHop8OqrwP79QGam7mi8U0aG0X+vv87kgIiIiMiP+OYIwvneew9YuNBYjrOtTXc01paRATzxBHDjjbojISIiIiIN/CNBcPjkE2DpUuNBWz6j8D2bDZg0yZiWdfXVuqMhIiIiIo38K0FwOHMGWLECWL0aOHpUdzT6xMYau1JPnWqsBkVEREREfs8/E4RzvfMO8OKLwNat/jGqEBQEjBplJAa33647GiIiIiKyGCYIDmfPAhs3Gvsp7NoFtLTojkgem83Y3GzcOGD8eKBnT90REREREZFFMUHoyDffANu3G2XHDqC2VndErouIANLTjTJqFNC7t+6IiIiIiMgLMEFwxocfAkVFQGkpUFICnDihO6ILhYcDQ4caZdgw4PrrdUdERERERF6ICYI7jh0D3n8fKC8HDh40SnW1ee1HRQEDB35fkpKA//gP89onIiIiIp/FBEGWM2eAqiqgstL4s6oKOHkSqKsD6uuN/25oMF57+vSF7w8NNf4MCTFGA8LCjBIRAcTEfF9iY4E+fcw7LiIiIiLyK0wQiIiIiIioXYDuAIiIiIiIyDqYIBARERERUTsmCERERERE1I4JAhERERERtWOCQERERERE7ZggEBERERFROyYIRERERETUjgkCERERERG1Y4JARERERETtmCAQEREREVE7JghERERERNTu/wPkvNP1ojQnhAAAAABJRU5ErkJggg==;" parent="I9D4RKwkG700jf1nvvi3-1" vertex="1">
                    <mxGeometry x="459.5" y="445" width="143.84" height="38" as="geometry"/>
                </mxCell>
            </root>
        </mxGraphModel>
    </diagram>
    <diagram name="Trading Parnters" id="VZHsmvhKgqG01gj8OQr2">
        <mxGraphModel dx="1565" dy="920" grid="0" gridSize="10" guides="1" tooltips="1" connect="1" arrows="1" fold="1" page="1" pageScale="1" pageWidth="1100" pageHeight="850" math="0" shadow="0">
            <root>
                <mxCell id="hyjQ1DNtwZ9PhvN8mv4k-0"/>
                <mxCell id="hyjQ1DNtwZ9PhvN8mv4k-1" parent="hyjQ1DNtwZ9PhvN8mv4k-0"/>
                <mxCell id="hyjQ1DNtwZ9PhvN8mv4k-2" value="" style="outlineConnect=0;dashed=0;verticalLabelPosition=bottom;verticalAlign=top;align=center;html=1;shape=mxgraph.aws3.cloud_2;fillColor=#F58534;gradientColor=none;" vertex="1" parent="hyjQ1DNtwZ9PhvN8mv4k-1">
                    <mxGeometry x="239" y="71" width="75" height="75" as="geometry"/>
                </mxCell>
                <mxCell id="hyjQ1DNtwZ9PhvN8mv4k-3" value="AWS Direct Connect" style="ellipse;shape=cloud;whiteSpace=wrap;html=1;fillColor=#dae8fc;strokeColor=#6c8ebf;" vertex="1" parent="hyjQ1DNtwZ9PhvN8mv4k-1">
                    <mxGeometry x="177.5" y="242" width="198" height="90" as="geometry"/>
                </mxCell>
                <mxCell id="hyjQ1DNtwZ9PhvN8mv4k-4" style="edgeStyle=none;html=1;strokeWidth=2;startArrow=classic;startFill=1;fillColor=#60a917;strokeColor=#2D7600;entryX=0;entryY=0.5;entryDx=0;entryDy=0;rounded=0;" edge="1" parent="hyjQ1DNtwZ9PhvN8mv4k-1" source="hyjQ1DNtwZ9PhvN8mv4k-5" target="hyjQ1DNtwZ9PhvN8mv4k-7">
                    <mxGeometry relative="1" as="geometry">
                        <mxPoint x="899" y="105.5" as="targetPoint"/>
                        <Array as="points">
                            <mxPoint x="877" y="106"/>
                            <mxPoint x="877" y="33"/>
                        </Array>
                    </mxGeometry>
                </mxCell>
                <mxCell id="hyjQ1DNtwZ9PhvN8mv4k-5" value="&lt;b&gt;&lt;font style=&quot;font-size: 14px;&quot;&gt;Internet&lt;/font&gt;&lt;/b&gt;" style="html=1;verticalLabelPosition=middle;align=center;labelBackgroundColor=#ffffff;verticalAlign=middle;strokeWidth=2;strokeColor=#B3B3B3;shadow=0;dashed=0;shape=mxgraph.ios7.icons.cloud;labelPosition=center;" vertex="1" parent="hyjQ1DNtwZ9PhvN8mv4k-1">
                    <mxGeometry x="591" y="53" width="202" height="105" as="geometry"/>
                </mxCell>
                <mxCell id="hyjQ1DNtwZ9PhvN8mv4k-6" value="" style="shape=image;verticalLabelPosition=bottom;labelBackgroundColor=default;verticalAlign=top;aspect=fixed;imageAspect=0;image=https://1000logos.net/wp-content/uploads/2022/03/IRS-Logo-1862.png;" vertex="1" parent="hyjQ1DNtwZ9PhvN8mv4k-1">
                    <mxGeometry x="997" y="166" width="57.78" height="32.5" as="geometry"/>
                </mxCell>
                <mxCell id="hyjQ1DNtwZ9PhvN8mv4k-7" value="" style="shape=image;verticalLabelPosition=bottom;labelBackgroundColor=default;verticalAlign=top;aspect=fixed;imageAspect=0;image=https://easyclocking.com/wp-content/uploads/2019/10/Hero.png;" vertex="1" parent="hyjQ1DNtwZ9PhvN8mv4k-1">
                    <mxGeometry x="998.78" y="5" width="56" height="56" as="geometry"/>
                </mxCell>
                <mxCell id="hyjQ1DNtwZ9PhvN8mv4k-8" style="edgeStyle=none;rounded=0;html=1;strokeWidth=2;startArrow=none;startFill=0;endArrow=none;endFill=0;fillColor=#60a917;strokeColor=#2D7600;" edge="1" parent="hyjQ1DNtwZ9PhvN8mv4k-1" source="hyjQ1DNtwZ9PhvN8mv4k-9">
                    <mxGeometry relative="1" as="geometry">
                        <mxPoint x="879" y="106" as="targetPoint"/>
                    </mxGeometry>
                </mxCell>
                <mxCell id="hyjQ1DNtwZ9PhvN8mv4k-9" value="Others&lt;br style=&quot;font-size: 10px;&quot;&gt;(BVS / TALX/ SAVE...)" style="text;html=1;strokeColor=default;fillColor=none;align=center;verticalAlign=middle;whiteSpace=wrap;rounded=0;fontSize=10;" vertex="1" parent="hyjQ1DNtwZ9PhvN8mv4k-1">
                    <mxGeometry x="949" y="90.5" width="130" height="30" as="geometry"/>
                </mxCell>
                <mxCell id="hyjQ1DNtwZ9PhvN8mv4k-14" style="edgeStyle=orthogonalEdgeStyle;rounded=0;orthogonalLoop=1;jettySize=auto;html=1;endArrow=classic;endFill=1;fillColor=#f8cecc;strokeColor=#b85450;strokeWidth=2;startArrow=classic;startFill=1;" edge="1" parent="hyjQ1DNtwZ9PhvN8mv4k-1" target="hyjQ1DNtwZ9PhvN8mv4k-5">
                    <mxGeometry relative="1" as="geometry">
                        <mxPoint x="317" y="136" as="sourcePoint"/>
                        <mxPoint x="677" y="176" as="targetPoint"/>
                        <Array as="points">
                            <mxPoint x="317" y="136"/>
                        </Array>
                    </mxGeometry>
                </mxCell>
                <mxCell id="hyjQ1DNtwZ9PhvN8mv4k-16" value="DIR&lt;br style=&quot;border-color: var(--border-color);&quot;&gt;MPLS" style="ellipse;shape=cloud;whiteSpace=wrap;html=1;fillColor=#dae8fc;strokeColor=#6c8ebf;" vertex="1" parent="hyjQ1DNtwZ9PhvN8mv4k-1">
                    <mxGeometry x="228" y="511.5" width="142.43" height="94.5" as="geometry"/>
                </mxCell>
                <mxCell id="hyjQ1DNtwZ9PhvN8mv4k-18" value="MegaPort" style="ellipse;shape=cloud;whiteSpace=wrap;html=1;fillColor=#dae8fc;strokeColor=#6c8ebf;" vertex="1" parent="hyjQ1DNtwZ9PhvN8mv4k-1">
                    <mxGeometry x="235" y="366" width="101.5" height="80" as="geometry"/>
                </mxCell>
                <mxCell id="hyjQ1DNtwZ9PhvN8mv4k-19" value="Internal Trading Partner Traffic&lt;br style=&quot;font-size: 12px;&quot;&gt;using existing Direct Connect" style="shape=note;strokeWidth=2;fontSize=12;size=20;whiteSpace=wrap;html=1;fillColor=#fff2cc;strokeColor=#d6b656;" vertex="1" parent="hyjQ1DNtwZ9PhvN8mv4k-1">
                    <mxGeometry x="167" y="646" width="169.5" height="80" as="geometry"/>
                </mxCell>
                <mxCell id="hyjQ1DNtwZ9PhvN8mv4k-20" style="edgeStyle=orthogonalEdgeStyle;rounded=0;orthogonalLoop=1;jettySize=auto;html=1;entryX=0.31;entryY=0.8;entryDx=0;entryDy=0;entryPerimeter=0;fillColor=#e1d5e7;strokeColor=#9673a6;strokeWidth=2;startArrow=classic;startFill=1;" edge="1" parent="hyjQ1DNtwZ9PhvN8mv4k-1" target="hyjQ1DNtwZ9PhvN8mv4k-16">
                    <mxGeometry relative="1" as="geometry">
                        <mxPoint x="87" y="706" as="sourcePoint"/>
                        <Array as="points">
                            <mxPoint x="87" y="706"/>
                            <mxPoint x="87" y="626"/>
                            <mxPoint x="272" y="626"/>
                        </Array>
                    </mxGeometry>
                </mxCell>
                <mxCell id="hyjQ1DNtwZ9PhvN8mv4k-21" value="SDC&lt;br&gt;(Trading Partner)" style="ellipse;shape=cloud;whiteSpace=wrap;html=1;fillColor=#e1d5e7;strokeColor=#9673a6;" vertex="1" parent="hyjQ1DNtwZ9PhvN8mv4k-1">
                    <mxGeometry x="17" y="696" width="160.5" height="96.89" as="geometry"/>
                </mxCell>
                <mxCell id="hyjQ1DNtwZ9PhvN8mv4k-22" style="edgeStyle=orthogonalEdgeStyle;rounded=0;orthogonalLoop=1;jettySize=auto;html=1;entryX=0.8;entryY=0.8;entryDx=0;entryDy=0;entryPerimeter=0;exitX=0.625;exitY=0.2;exitDx=0;exitDy=0;exitPerimeter=0;fillColor=#e1d5e7;strokeColor=#9673a6;strokeWidth=2;startArrow=classic;startFill=1;" edge="1" parent="hyjQ1DNtwZ9PhvN8mv4k-1" source="hyjQ1DNtwZ9PhvN8mv4k-23" target="hyjQ1DNtwZ9PhvN8mv4k-16">
                    <mxGeometry relative="1" as="geometry"/>
                </mxCell>
                <mxCell id="hyjQ1DNtwZ9PhvN8mv4k-23" value="ADC&lt;br&gt;(Trading Partner)" style="ellipse;shape=cloud;whiteSpace=wrap;html=1;fillColor=#e1d5e7;strokeColor=#9673a6;" vertex="1" parent="hyjQ1DNtwZ9PhvN8mv4k-1">
                    <mxGeometry x="329.5" y="696" width="160.5" height="96.89" as="geometry"/>
                </mxCell>
                <mxCell id="hyjQ1DNtwZ9PhvN8mv4k-24" style="edgeStyle=none;rounded=0;html=1;strokeWidth=2;startArrow=none;startFill=0;fillColor=#60a917;strokeColor=#2D7600;" edge="1" parent="hyjQ1DNtwZ9PhvN8mv4k-1" target="hyjQ1DNtwZ9PhvN8mv4k-6">
                    <mxGeometry relative="1" as="geometry">
                        <mxPoint x="876" y="106" as="sourcePoint"/>
                        <Array as="points">
                            <mxPoint x="876" y="185"/>
                        </Array>
                    </mxGeometry>
                </mxCell>
                <mxCell id="hyjQ1DNtwZ9PhvN8mv4k-25" value="External Trading Partners" style="shape=note;strokeWidth=2;fontSize=14;size=9;whiteSpace=wrap;html=1;fillColor=#e1d5e7;strokeColor=#9673a6;" vertex="1" parent="hyjQ1DNtwZ9PhvN8mv4k-1">
                    <mxGeometry x="903" y="222.75" width="181.67" height="39.25" as="geometry"/>
                </mxCell>
                <mxCell id="hyjQ1DNtwZ9PhvN8mv4k-26" value="State of Texas - Inter Agency Trading Partners" style="shape=note;strokeWidth=2;fontSize=14;size=9;whiteSpace=wrap;html=1;fillColor=#e1d5e7;strokeColor=#9673a6;" vertex="1" parent="hyjQ1DNtwZ9PhvN8mv4k-1">
                    <mxGeometry x="37" y="806" width="440" height="39.25" as="geometry"/>
                </mxCell>
                <mxCell id="hyjQ1DNtwZ9PhvN8mv4k-30" style="edgeStyle=none;html=1;strokeWidth=2;startArrow=classic;startFill=1;fillColor=#60a917;strokeColor=#2D7600;" edge="1" parent="hyjQ1DNtwZ9PhvN8mv4k-1">
                    <mxGeometry relative="1" as="geometry">
                        <mxPoint x="588" y="105" as="targetPoint"/>
                        <mxPoint x="319" y="105" as="sourcePoint"/>
                    </mxGeometry>
                </mxCell>
                <mxCell id="hyjQ1DNtwZ9PhvN8mv4k-41" value="External Trading Partner Traffic&lt;br style=&quot;font-size: 12px;&quot;&gt;(to AWS)" style="shape=note;strokeWidth=2;fontSize=12;size=20;whiteSpace=wrap;html=1;fillColor=#fff2cc;strokeColor=#d6b656;" vertex="1" parent="hyjQ1DNtwZ9PhvN8mv4k-1">
                    <mxGeometry x="451" y="15.73" width="146.77" height="69.27" as="geometry"/>
                </mxCell>
                <mxCell id="hyjQ1DNtwZ9PhvN8mv4k-44" style="edgeStyle=orthogonalEdgeStyle;rounded=0;orthogonalLoop=1;jettySize=auto;html=1;startArrow=classic;startFill=1;fillColor=#dae8fc;strokeColor=#9673A6;strokeWidth=2;" edge="1" parent="hyjQ1DNtwZ9PhvN8mv4k-1">
                    <mxGeometry relative="1" as="geometry">
                        <mxPoint x="269" y="433.9991755864919" as="sourcePoint"/>
                        <mxPoint x="269" y="527.78" as="targetPoint"/>
                        <Array as="points">
                            <mxPoint x="269" y="518.78"/>
                        </Array>
                    </mxGeometry>
                </mxCell>
                <mxCell id="hyjQ1DNtwZ9PhvN8mv4k-45" style="edgeStyle=orthogonalEdgeStyle;rounded=0;orthogonalLoop=1;jettySize=auto;html=1;startArrow=classic;startFill=1;fillColor=#dae8fc;strokeColor=#9673A6;strokeWidth=2;" edge="1" parent="hyjQ1DNtwZ9PhvN8mv4k-1">
                    <mxGeometry relative="1" as="geometry">
                        <mxPoint x="261" y="323.83000000000004" as="sourcePoint"/>
                        <mxPoint x="261" y="384.61" as="targetPoint"/>
                        <Array as="points">
                            <mxPoint x="261" y="375.61"/>
                        </Array>
                    </mxGeometry>
                </mxCell>
                <mxCell id="hyjQ1DNtwZ9PhvN8mv4k-46" style="edgeStyle=orthogonalEdgeStyle;rounded=0;orthogonalLoop=1;jettySize=auto;html=1;startArrow=classic;startFill=1;fillColor=#dae8fc;strokeColor=#9673A6;strokeWidth=2;entryX=0.4;entryY=0.1;entryDx=0;entryDy=0;entryPerimeter=0;" edge="1" parent="hyjQ1DNtwZ9PhvN8mv4k-1" target="hyjQ1DNtwZ9PhvN8mv4k-3">
                    <mxGeometry relative="1" as="geometry">
                        <mxPoint x="256.5" y="145.9991755864919" as="sourcePoint"/>
                        <mxPoint x="256.5" y="239.77999999999997" as="targetPoint"/>
                        <Array as="points"/>
                    </mxGeometry>
                </mxCell>
            </root>
        </mxGraphModel>
    </diagram>
    <diagram name="Cisco 8000V" id="ZwxEZ9WUu3pWgsy6o1Jh">
        <mxGraphModel dx="1565" dy="920" grid="0" gridSize="10" guides="1" tooltips="1" connect="1" arrows="1" fold="1" page="1" pageScale="1" pageWidth="1100" pageHeight="850" math="0" shadow="0">
            <root>
                <mxCell id="uj5hX85Zh-AEkS0dbevw-0"/>
                <mxCell id="uj5hX85Zh-AEkS0dbevw-1" parent="uj5hX85Zh-AEkS0dbevw-0"/>
                <mxCell id="uj5hX85Zh-AEkS0dbevw-3" value="TIERS Cloud (us-east-2)" style="points=[[0,0],[0.25,0],[0.5,0],[0.75,0],[1,0],[1,0.25],[1,0.5],[1,0.75],[1,1],[0.75,1],[0.5,1],[0.25,1],[0,1],[0,0.75],[0,0.5],[0,0.25]];outlineConnect=0;gradientColor=none;html=1;whiteSpace=wrap;fontSize=12;fontStyle=0;container=0;pointerEvents=0;collapsible=0;recursiveResize=0;shape=mxgraph.aws4.group;grIcon=mxgraph.aws4.group_aws_cloud_alt;strokeColor=#232F3E;fillColor=none;verticalAlign=top;align=left;spacingLeft=30;fontColor=#232F3E;dashed=0;" parent="uj5hX85Zh-AEkS0dbevw-1" vertex="1">
                    <mxGeometry x="25" y="111" width="307" height="535" as="geometry"/>
                </mxCell>
                <mxCell id="uj5hX85Zh-AEkS0dbevw-8" value="" style="edgeStyle=none;html=1;exitX=1;exitY=0.5;exitDx=0;exitDy=0;exitPerimeter=0;endArrow=none;endFill=0;" parent="uj5hX85Zh-AEkS0dbevw-1" edge="1">
                    <mxGeometry relative="1" as="geometry">
                        <mxPoint x="591" y="705" as="sourcePoint"/>
                        <mxPoint x="591" y="705" as="targetPoint"/>
                    </mxGeometry>
                </mxCell>
                <mxCell id="uj5hX85Zh-AEkS0dbevw-20" style="edgeStyle=none;html=1;exitX=0.4;exitY=0.1;exitDx=0;exitDy=0;exitPerimeter=0;entryX=0.473;entryY=0.99;entryDx=0;entryDy=0;strokeColor=#000000;strokeWidth=1;endArrow=none;endFill=0;entryPerimeter=0;" parent="uj5hX85Zh-AEkS0dbevw-1" source="uj5hX85Zh-AEkS0dbevw-21" target="u3pDL5xSHK6dCXWpWXHX-0" edge="1">
                    <mxGeometry relative="1" as="geometry">
                        <mxPoint x="381" y="157" as="targetPoint"/>
                    </mxGeometry>
                </mxCell>
                <mxCell id="uj5hX85Zh-AEkS0dbevw-21" value="SDWAN" style="ellipse;shape=cloud;whiteSpace=wrap;html=1;fillColor=#d5e8d4;strokeColor=#82b366;" parent="uj5hX85Zh-AEkS0dbevw-1" vertex="1">
                    <mxGeometry x="689" y="224" width="192" height="128" as="geometry"/>
                </mxCell>
                <mxCell id="uj5hX85Zh-AEkS0dbevw-22" value="" style="edgeStyle=none;html=1;exitX=0.4;exitY=0.1;exitDx=0;exitDy=0;exitPerimeter=0;fontSize=14;endArrow=none;endFill=0;fillColor=#d5e8d4;strokeColor=#000000;strokeWidth=1;entryX=0.55;entryY=0.95;entryDx=0;entryDy=0;entryPerimeter=0;" parent="uj5hX85Zh-AEkS0dbevw-1" source="uj5hX85Zh-AEkS0dbevw-28" target="uj5hX85Zh-AEkS0dbevw-21" edge="1">
                    <mxGeometry relative="1" as="geometry">
                        <mxPoint x="549.5317777777777" y="456" as="sourcePoint"/>
                        <mxPoint x="554" y="255" as="targetPoint"/>
                    </mxGeometry>
                </mxCell>
                <mxCell id="uj5hX85Zh-AEkS0dbevw-26" value="" style="group" parent="uj5hX85Zh-AEkS0dbevw-1" vertex="1" connectable="0">
                    <mxGeometry x="433" y="554.72" width="195.17" height="135.45" as="geometry"/>
                </mxCell>
                <mxCell id="uj5hX85Zh-AEkS0dbevw-27" value="HHS&lt;br&gt;Regional Offices" style="ellipse;shape=cloud;whiteSpace=wrap;html=1;fillColor=#d5e8d4;strokeColor=#82b366;" parent="uj5hX85Zh-AEkS0dbevw-26" vertex="1">
                    <mxGeometry width="184.16607690493038" height="135.45" as="geometry"/>
                </mxCell>
                <mxCell id="uj5hX85Zh-AEkS0dbevw-28" value="HHS Core&lt;br&gt;Winters" style="ellipse;shape=cloud;whiteSpace=wrap;html=1;fillColor=#d5e8d4;strokeColor=#82b366;" parent="uj5hX85Zh-AEkS0dbevw-1" vertex="1">
                    <mxGeometry x="713" y="563.28" width="190.33" height="126.89" as="geometry"/>
                </mxCell>
                <mxCell id="uj5hX85Zh-AEkS0dbevw-41" style="edgeStyle=none;html=1;entryX=0.065;entryY=0.473;entryDx=0;entryDy=0;entryPerimeter=0;endArrow=none;endFill=0;exitX=0.875;exitY=0.5;exitDx=0;exitDy=0;exitPerimeter=0;" parent="uj5hX85Zh-AEkS0dbevw-1" source="uj5hX85Zh-AEkS0dbevw-27" target="uj5hX85Zh-AEkS0dbevw-28" edge="1">
                    <mxGeometry relative="1" as="geometry"/>
                </mxCell>
                <mxCell id="uj5hX85Zh-AEkS0dbevw-42" style="edgeStyle=none;html=1;endArrow=none;endFill=0;dashed=1;" parent="uj5hX85Zh-AEkS0dbevw-1" source="uj5hX85Zh-AEkS0dbevw-45" edge="1">
                    <mxGeometry relative="1" as="geometry">
                        <mxPoint x="679" y="622" as="targetPoint"/>
                    </mxGeometry>
                </mxCell>
                <mxCell id="uj5hX85Zh-AEkS0dbevw-45" value="Cisco vManage" style="sketch=0;points=[[0.5,0,0],[1,0.5,0],[0.5,1,0],[0,0.5,0],[0.145,0.145,0],[0.8555,0.145,0],[0.855,0.8555,0],[0.145,0.855,0]];verticalLabelPosition=bottom;html=1;verticalAlign=top;aspect=fixed;align=center;pointerEvents=1;shape=mxgraph.cisco19.rect;prIcon=vmanage;fillColor=#FAFAFA;strokeColor=#005073;" parent="uj5hX85Zh-AEkS0dbevw-1" vertex="1">
                    <mxGeometry x="545" y="339" width="50" height="50" as="geometry"/>
                </mxCell>
                <mxCell id="VwP_mrJNMKsJtTJhUGu2-2" style="edgeStyle=none;html=1;endArrow=none;endFill=0;dashed=1;exitX=1;exitY=0.5;exitDx=0;exitDy=0;exitPerimeter=0;" parent="uj5hX85Zh-AEkS0dbevw-1" source="uj5hX85Zh-AEkS0dbevw-45" edge="1">
                    <mxGeometry relative="1" as="geometry">
                        <mxPoint x="798" y="372" as="targetPoint"/>
                        <mxPoint x="590.2093023255813" y="405" as="sourcePoint"/>
                    </mxGeometry>
                </mxCell>
                <mxCell id="VwP_mrJNMKsJtTJhUGu2-3" style="edgeStyle=none;html=1;endArrow=none;endFill=0;dashed=1;exitX=0.5;exitY=0;exitDx=0;exitDy=0;exitPerimeter=0;" parent="uj5hX85Zh-AEkS0dbevw-1" source="uj5hX85Zh-AEkS0dbevw-45" edge="1">
                    <mxGeometry relative="1" as="geometry">
                        <mxPoint x="712" y="160" as="targetPoint"/>
                        <mxPoint x="605" y="374" as="sourcePoint"/>
                    </mxGeometry>
                </mxCell>
                <mxCell id="u3pDL5xSHK6dCXWpWXHX-0" value="&lt;b&gt;&lt;font style=&quot;font-size: 14px;&quot;&gt;Internet&lt;/font&gt;&lt;/b&gt;" style="html=1;verticalLabelPosition=middle;align=center;labelBackgroundColor=#ffffff;verticalAlign=middle;strokeWidth=2;strokeColor=#B3B3B3;shadow=0;dashed=0;shape=mxgraph.ios7.icons.cloud;labelPosition=center;" parent="uj5hX85Zh-AEkS0dbevw-1" vertex="1">
                    <mxGeometry x="572" y="21" width="260" height="100" as="geometry"/>
                </mxCell>
                <mxCell id="u3pDL5xSHK6dCXWpWXHX-2" style="edgeStyle=none;html=1;exitX=0.023;exitY=0.89;exitDx=0;exitDy=0;exitPerimeter=0;strokeColor=#000000;strokeWidth=1;endArrow=none;endFill=0;" parent="uj5hX85Zh-AEkS0dbevw-1" source="u3pDL5xSHK6dCXWpWXHX-0" target="SIJyE2-4i-GBO1fv_HP3-9" edge="1">
                    <mxGeometry relative="1" as="geometry">
                        <mxPoint x="365" y="307" as="targetPoint"/>
                        <mxPoint x="775.8" y="246.79999999999995" as="sourcePoint"/>
                    </mxGeometry>
                </mxCell>
                <mxCell id="u3pDL5xSHK6dCXWpWXHX-3" style="edgeStyle=none;html=1;endArrow=none;endFill=0;dashed=1;exitX=0.145;exitY=0.145;exitDx=0;exitDy=0;exitPerimeter=0;" parent="uj5hX85Zh-AEkS0dbevw-1" source="uj5hX85Zh-AEkS0dbevw-45" edge="1">
                    <mxGeometry relative="1" as="geometry">
                        <mxPoint x="475" y="202" as="targetPoint"/>
                        <mxPoint x="580" y="349" as="sourcePoint"/>
                    </mxGeometry>
                </mxCell>
                <mxCell id="C6hgTwQMM2IKRQ_efHPO-2" value="TIERS Network Account" style="points=[[0,0],[0.25,0],[0.5,0],[0.75,0],[1,0],[1,0.25],[1,0.5],[1,0.75],[1,1],[0.75,1],[0.5,1],[0.25,1],[0,1],[0,0.75],[0,0.5],[0,0.25]];outlineConnect=0;gradientColor=none;html=1;whiteSpace=wrap;fontSize=12;fontStyle=0;container=1;pointerEvents=0;collapsible=0;recursiveResize=0;shape=mxgraph.aws4.group;grIcon=mxgraph.aws4.group_account;strokeColor=#CD2264;fillColor=none;verticalAlign=top;align=left;spacingLeft=30;fontColor=#CD2264;dashed=0;" parent="uj5hX85Zh-AEkS0dbevw-1" vertex="1">
                    <mxGeometry x="37" y="142" width="277" height="478" as="geometry"/>
                </mxCell>
                <mxCell id="C6hgTwQMM2IKRQ_efHPO-3" value="TIERS Network VPC" style="points=[[0,0],[0.25,0],[0.5,0],[0.75,0],[1,0],[1,0.25],[1,0.5],[1,0.75],[1,1],[0.75,1],[0.5,1],[0.25,1],[0,1],[0,0.75],[0,0.5],[0,0.25]];outlineConnect=0;gradientColor=none;html=1;whiteSpace=wrap;fontSize=12;fontStyle=0;container=1;pointerEvents=0;collapsible=0;recursiveResize=0;shape=mxgraph.aws4.group;grIcon=mxgraph.aws4.group_vpc;strokeColor=#248814;fillColor=none;verticalAlign=top;align=left;spacingLeft=30;fontColor=#AAB7B8;dashed=0;" parent="C6hgTwQMM2IKRQ_efHPO-2" vertex="1">
                    <mxGeometry x="16" y="41" width="251" height="421" as="geometry"/>
                </mxCell>
                <mxCell id="SIJyE2-4i-GBO1fv_HP3-2" value="Availability Zone A" style="fillColor=none;strokeColor=#147EBA;dashed=1;verticalAlign=top;fontStyle=0;fontColor=#147EBA;" parent="C6hgTwQMM2IKRQ_efHPO-3" vertex="1">
                    <mxGeometry x="7.5" y="46" width="158" height="152" as="geometry"/>
                </mxCell>
                <mxCell id="UglPtTJKw5VgSh2PlyJM-18" value="Cisco 8000V Catalyst&lt;br style=&quot;border-color: var(--border-color);&quot;&gt;SD-WAN &lt;br&gt;(Virtual router &amp;amp; accelerator)&amp;nbsp;" style="sketch=0;outlineConnect=0;fontColor=#232F3E;gradientColor=none;fillColor=#4D27AA;strokeColor=none;dashed=0;verticalLabelPosition=bottom;verticalAlign=top;align=center;html=1;fontSize=12;fontStyle=0;aspect=fixed;pointerEvents=1;shape=mxgraph.aws4.customer_gateway;" parent="C6hgTwQMM2IKRQ_efHPO-3" vertex="1">
                    <mxGeometry x="61" y="83" width="45" height="45" as="geometry"/>
                </mxCell>
                <mxCell id="SIJyE2-4i-GBO1fv_HP3-7" value="Availability Zone B" style="fillColor=none;strokeColor=#147EBA;dashed=1;verticalAlign=top;fontStyle=0;fontColor=#147EBA;" parent="C6hgTwQMM2IKRQ_efHPO-3" vertex="1">
                    <mxGeometry x="7.5" y="223" width="158" height="152" as="geometry"/>
                </mxCell>
                <mxCell id="SIJyE2-4i-GBO1fv_HP3-8" value="Cisco 8000V Catalyst&lt;br style=&quot;border-color: var(--border-color);&quot;&gt;SD-WAN &lt;br&gt;(Virtual router &amp;amp; accelerator)&amp;nbsp;" style="sketch=0;outlineConnect=0;fontColor=#232F3E;gradientColor=none;fillColor=#4D27AA;strokeColor=none;dashed=0;verticalLabelPosition=bottom;verticalAlign=top;align=center;html=1;fontSize=12;fontStyle=0;aspect=fixed;pointerEvents=1;shape=mxgraph.aws4.customer_gateway;" parent="C6hgTwQMM2IKRQ_efHPO-3" vertex="1">
                    <mxGeometry x="61.5" y="264" width="44" height="44" as="geometry"/>
                </mxCell>
                <mxCell id="SIJyE2-4i-GBO1fv_HP3-11" style="edgeStyle=none;html=1;endArrow=none;endFill=0;" parent="C6hgTwQMM2IKRQ_efHPO-3" source="SIJyE2-4i-GBO1fv_HP3-9" target="UglPtTJKw5VgSh2PlyJM-18" edge="1">
                    <mxGeometry relative="1" as="geometry"/>
                </mxCell>
                <mxCell id="SIJyE2-4i-GBO1fv_HP3-9" value="Load &lt;br&gt;Balancer" style="sketch=0;outlineConnect=0;fontColor=#232F3E;gradientColor=none;fillColor=#4D27AA;strokeColor=none;dashed=0;verticalLabelPosition=bottom;verticalAlign=top;align=center;html=1;fontSize=12;fontStyle=0;aspect=fixed;pointerEvents=1;shape=mxgraph.aws4.network_load_balancer;" parent="C6hgTwQMM2IKRQ_efHPO-3" vertex="1">
                    <mxGeometry x="191" y="164" width="52" height="52" as="geometry"/>
                </mxCell>
                <mxCell id="SIJyE2-4i-GBO1fv_HP3-12" style="edgeStyle=none;html=1;endArrow=none;endFill=0;" parent="C6hgTwQMM2IKRQ_efHPO-3" source="SIJyE2-4i-GBO1fv_HP3-9" target="SIJyE2-4i-GBO1fv_HP3-8" edge="1">
                    <mxGeometry relative="1" as="geometry">
                        <mxPoint x="192" y="195.80321285140553" as="sourcePoint"/>
                        <mxPoint x="116" y="133.84337349397595" as="targetPoint"/>
                    </mxGeometry>
                </mxCell>
            </root>
        </mxGraphModel>
    </diagram>
</mxfile>